solid OpenSCAD_Model
  facet normal -1 0 0
    outer loop
      vertex 0 41.275 0
      vertex 0 36.83 7.62
      vertex 0 41.275 10.795
    endloop
  endfacet
  facet normal -1 0 0
    outer loop
      vertex 0 41.275 0
      vertex 0 11.43 7.62
      vertex 0 36.83 7.62
    endloop
  endfacet
  facet normal -1 0 0
    outer loop
      vertex 0 0 0
      vertex 0 11.43 7.62
      vertex 0 41.275 0
    endloop
  endfacet
  facet normal -1 0 0
    outer loop
      vertex 0 0 10.795
      vertex 0 11.43 7.62
      vertex 0 0 0
    endloop
  endfacet
  facet normal -1 0 0
    outer loop
      vertex 0 11.43 7.62
      vertex 0 0 10.795
      vertex 0 11.43 10.795
    endloop
  endfacet
  facet normal -1 -0 0
    outer loop
      vertex 0 41.275 10.795
      vertex 0 36.83 7.62
      vertex 0 36.83 10.795
    endloop
  endfacet
  facet normal 0 0 1
    outer loop
      vertex 0 36.83 10.795
      vertex 3.175 44.45 10.795
      vertex 0 41.275 10.795
    endloop
  endfacet
  facet normal -0 0 1
    outer loop
      vertex 3.175 3.175 10.795
      vertex 25.7175 0 10.795
      vertex 25.7175 3.175 10.795
    endloop
  endfacet
  facet normal 0 0 1
    outer loop
      vertex 0 11.43 10.795
      vertex 3.175 44.45 10.795
      vertex 0 36.83 10.795
    endloop
  endfacet
  facet normal 0 0 1
    outer loop
      vertex 3.175 44.45 10.795
      vertex 0 11.43 10.795
      vertex 3.175 3.175 10.795
    endloop
  endfacet
  facet normal 0 0 1
    outer loop
      vertex 3.175 3.175 10.795
      vertex 0 0 10.795
      vertex 25.7175 0 10.795
    endloop
  endfacet
  facet normal 0 0 1
    outer loop
      vertex 0 0 10.795
      vertex 3.175 3.175 10.795
      vertex 0 11.43 10.795
    endloop
  endfacet
  facet normal -0 0 1
    outer loop
      vertex -25.4 36.83 10.795
      vertex 0 11.43 10.795
      vertex 0 36.83 10.795
    endloop
  endfacet
  facet normal 0 0 1
    outer loop
      vertex 0 11.43 10.795
      vertex -25.4 36.83 10.795
      vertex -25.4 11.43 10.795
    endloop
  endfacet
  facet normal 0 0 1
    outer loop
      vertex 55.5625 57.15 10.795
      vertex 52.3875 53.975 10.795
      vertex 55.5625 0 10.795
    endloop
  endfacet
  facet normal -0 0 1
    outer loop
      vertex 15.875 57.15 10.795
      vertex 52.3875 53.975 10.795
      vertex 55.5625 57.15 10.795
    endloop
  endfacet
  facet normal 0 0 1
    outer loop
      vertex 52.3875 53.975 10.795
      vertex 15.875 57.15 10.795
      vertex 12.7 53.975 10.795
    endloop
  endfacet
  facet normal -0 0 1
    outer loop
      vertex 52.3875 3.175 10.795
      vertex 55.5625 0 10.795
      vertex 52.3875 53.975 10.795
    endloop
  endfacet
  facet normal 0 0 1
    outer loop
      vertex 44.7675 0 10.795
      vertex 52.3875 3.175 10.795
      vertex 44.7675 3.175 10.795
    endloop
  endfacet
  facet normal 0 0 1
    outer loop
      vertex 52.3875 3.175 10.795
      vertex 44.7675 0 10.795
      vertex 55.5625 0 10.795
    endloop
  endfacet
  facet normal 1 0 0
    outer loop
      vertex 55.5625 3.175 5.08
      vertex 55.5625 57.15 5.08
      vertex 55.5625 57.15 10.795
    endloop
  endfacet
  facet normal 1 0 0
    outer loop
      vertex 55.5625 57.15 5.08
      vertex 55.5625 3.175 5.08
      vertex 55.5625 57.15 0
    endloop
  endfacet
  facet normal 1 -0 0
    outer loop
      vertex 55.5625 0 10.795
      vertex 55.5625 3.175 5.08
      vertex 55.5625 57.15 10.795
    endloop
  endfacet
  facet normal 1 0 0
    outer loop
      vertex 55.5625 3.175 5.08
      vertex 55.5625 0 10.795
      vertex 55.5625 0 5.08
    endloop
  endfacet
  facet normal 1 0 0
    outer loop
      vertex 55.5625 57.15 0
      vertex 55.5625 3.175 5.08
      vertex 55.5625 3.175 0
    endloop
  endfacet
  facet normal 1 -0 0
    outer loop
      vertex 55.5625 3.175 0
      vertex 55.5625 25.4 -15.24
      vertex 55.5625 57.15 0
    endloop
  endfacet
  facet normal 1 0 0
    outer loop
      vertex 55.5625 25.4 -15.24
      vertex 55.5625 3.175 0
      vertex 55.5625 3.175 -15.24
    endloop
  endfacet
  facet normal 1 0 0
    outer loop
      vertex 55.5625 57.15 0
      vertex 55.5625 71.755 5.08
      vertex 55.5625 57.15 5.08
    endloop
  endfacet
  facet normal 1 0 0
    outer loop
      vertex 55.5625 71.755 5.08
      vertex 55.5625 57.15 0
      vertex 55.5625 71.755 -15.24
    endloop
  endfacet
  facet normal 1 0 0
    outer loop
      vertex 55.5625 57.15 0
      vertex 55.5625 25.4 -15.24
      vertex 55.5625 71.755 -15.24
    endloop
  endfacet
  facet normal -0 0 1
    outer loop
      vertex 22.5425 0 0
      vertex 25.7175 -13.335 0
      vertex 25.7175 0 0
    endloop
  endfacet
  facet normal 0 0 1
    outer loop
      vertex 25.7175 -13.335 0
      vertex 22.5425 0 0
      vertex 22.5425 -13.335 0
    endloop
  endfacet
  facet normal -0 0 1
    outer loop
      vertex 44.7675 0 0
      vertex 47.9425 -13.335 0
      vertex 47.9425 0 0
    endloop
  endfacet
  facet normal 0 0 1
    outer loop
      vertex 47.9425 -13.335 0
      vertex 44.7675 0 0
      vertex 44.7675 -13.335 0
    endloop
  endfacet
  facet normal 0 0 -1
    outer loop
      vertex 0 41.275 0
      vertex 22.5425 43.815 0
      vertex 22.5425 0 0
    endloop
  endfacet
  facet normal 0 0 -1
    outer loop
      vertex 0 41.275 0
      vertex 22.5425 0 0
      vertex 0 0 0
    endloop
  endfacet
  facet normal -0 0 -1
    outer loop
      vertex 22.5425 43.815 0
      vertex 0 41.275 0
      vertex 15.875 57.15 0
    endloop
  endfacet
  facet normal 0 0 -1
    outer loop
      vertex 47.9425 43.815 0
      vertex 52.3875 0 0
      vertex 47.9425 0 0
    endloop
  endfacet
  facet normal 0 0 -1
    outer loop
      vertex 52.3875 0 0
      vertex 47.9425 43.815 0
      vertex 52.3875 57.15 0
    endloop
  endfacet
  facet normal 0 0 -1
    outer loop
      vertex 22.5425 43.815 0
      vertex 52.3875 57.15 0
      vertex 47.9425 43.815 0
    endloop
  endfacet
  facet normal -0 0 -1
    outer loop
      vertex 52.3875 57.15 0
      vertex 22.5425 43.815 0
      vertex 15.875 57.15 0
    endloop
  endfacet
  facet normal 0 -1 0
    outer loop
      vertex 47.9425 0 -15.24
      vertex 47.9425 0 -18.415
      vertex 52.3875 0 -15.24
    endloop
  endfacet
  facet normal 0 -1 0
    outer loop
      vertex 44.7675 0 10.795
      vertex 55.5625 0 5.08
      vertex 55.5625 0 10.795
    endloop
  endfacet
  facet normal 0 -1 0
    outer loop
      vertex 55.5625 0 5.08
      vertex 59.3725 0 1.905
      vertex 59.3725 0 5.08
    endloop
  endfacet
  facet normal 0 -1 0
    outer loop
      vertex 47.9425 0 0
      vertex 55.5625 0 5.08
      vertex 44.7675 0 10.795
    endloop
  endfacet
  facet normal 0 -1 -0
    outer loop
      vertex 55.5625 0 5.08
      vertex 52.3875 0 0
      vertex 59.3725 0 1.905
    endloop
  endfacet
  facet normal 0 -1 -0
    outer loop
      vertex 59.3725 0 1.905
      vertex 52.3875 0 0
      vertex 59.4025 0 1.42748
    endloop
  endfacet
  facet normal 0 -1 -0
    outer loop
      vertex 59.4025 0 1.42748
      vertex 52.3875 0 0
      vertex 59.4922 0 0.957491
    endloop
  endfacet
  facet normal 0 -1 -0
    outer loop
      vertex 59.4922 0 0.957491
      vertex 52.3875 0 0
      vertex 59.6401 0 0.502445
    endloop
  endfacet
  facet normal 0 -1 0
    outer loop
      vertex 47.9425 0 0
      vertex 44.7675 0 10.795
      vertex 44.7675 0 0
    endloop
  endfacet
  facet normal 0 -1 0
    outer loop
      vertex 55.5625 0 5.08
      vertex 47.9425 0 0
      vertex 52.3875 0 0
    endloop
  endfacet
  facet normal 0 -1 -0
    outer loop
      vertex 59.6401 0 0.502445
      vertex 52.3875 0 0
      vertex 59.8438 0 0.0695181
    endloop
  endfacet
  facet normal 0 -1 0
    outer loop
      vertex 52.3875 0 0
      vertex 60.1001 0 -0.334462
      vertex 59.8438 0 0.0695181
    endloop
  endfacet
  facet normal 0 -1 0
    outer loop
      vertex 52.3875 0 0
      vertex 60.4051 0 -0.703125
      vertex 60.1001 0 -0.334462
    endloop
  endfacet
  facet normal 0 -1 0
    outer loop
      vertex 52.3875 0 0
      vertex 60.7539 0 -1.03066
      vertex 60.4051 0 -0.703125
    endloop
  endfacet
  facet normal 0 -1 0
    outer loop
      vertex 52.3875 0 -15.24
      vertex 60.7539 0 -1.03066
      vertex 52.3875 0 0
    endloop
  endfacet
  facet normal 0 -1 -0
    outer loop
      vertex 60.7539 0 -1.03066
      vertex 52.3875 0 -15.24
      vertex 61.141 0 -1.31189
    endloop
  endfacet
  facet normal 0 -1 -0
    outer loop
      vertex 61.141 0 -1.31189
      vertex 52.3875 0 -15.24
      vertex 61.5603 0 -1.54239
    endloop
  endfacet
  facet normal 0 -1 -0
    outer loop
      vertex 61.5603 0 -1.54239
      vertex 52.3875 0 -15.24
      vertex 62.0051 0 -1.71853
    endloop
  endfacet
  facet normal 0 -1 -0
    outer loop
      vertex 62.9433 0 -1.89748
      vertex 52.3875 0 -15.24
      vertex 63.4217 0 -1.89748
    endloop
  endfacet
  facet normal 0 -1 -0
    outer loop
      vertex 62.4686 0 -1.83751
      vertex 52.3875 0 -15.24
      vertex 62.9433 0 -1.89748
    endloop
  endfacet
  facet normal 0 -1 -0
    outer loop
      vertex 62.0051 0 -1.71853
      vertex 52.3875 0 -15.24
      vertex 62.4686 0 -1.83751
    endloop
  endfacet
  facet normal 0 -1 0
    outer loop
      vertex 66.9925 0 1.905
      vertex 94.2975 0 5.08
      vertex 66.9925 0 5.08
    endloop
  endfacet
  facet normal 0 -1 0
    outer loop
      vertex 66.9625 0 1.42748
      vertex 94.2975 0 5.08
      vertex 66.9925 0 1.905
    endloop
  endfacet
  facet normal 0 -1 0
    outer loop
      vertex 66.8728 0 0.957491
      vertex 94.2975 0 5.08
      vertex 66.9625 0 1.42748
    endloop
  endfacet
  facet normal 0 -1 0
    outer loop
      vertex 66.7249 0 0.502445
      vertex 94.2975 0 5.08
      vertex 66.8728 0 0.957491
    endloop
  endfacet
  facet normal 0 -1 0
    outer loop
      vertex 94.2975 0 -18.415
      vertex 66.7249 0 0.502445
      vertex 66.5212 0 0.0695181
    endloop
  endfacet
  facet normal 0 -1 0
    outer loop
      vertex 94.2975 0 -18.415
      vertex 66.5212 0 0.0695181
      vertex 66.2649 0 -0.334462
    endloop
  endfacet
  facet normal 0 -1 0
    outer loop
      vertex 94.2975 0 -18.415
      vertex 66.2649 0 -0.334462
      vertex 65.9599 0 -0.703125
    endloop
  endfacet
  facet normal 0 -1 0
    outer loop
      vertex 94.2975 0 -18.415
      vertex 65.9599 0 -0.703125
      vertex 65.6111 0 -1.03066
    endloop
  endfacet
  facet normal 0 -1 0
    outer loop
      vertex 94.2975 0 -18.415
      vertex 65.6111 0 -1.03066
      vertex 65.224 0 -1.31189
    endloop
  endfacet
  facet normal 0 -1 0
    outer loop
      vertex 94.2975 0 -18.415
      vertex 65.224 0 -1.31189
      vertex 64.8047 0 -1.54239
    endloop
  endfacet
  facet normal 0 -1 0
    outer loop
      vertex 52.3875 0 -18.415
      vertex 64.8047 0 -1.54239
      vertex 64.3599 0 -1.71853
    endloop
  endfacet
  facet normal 0 -1 0
    outer loop
      vertex 52.3875 0 -18.415
      vertex 64.3599 0 -1.71853
      vertex 63.8964 0 -1.83751
    endloop
  endfacet
  facet normal 0 -1 0
    outer loop
      vertex 52.3875 0 -15.24
      vertex 63.8964 0 -1.83751
      vertex 63.4217 0 -1.89748
    endloop
  endfacet
  facet normal 0 -1 0
    outer loop
      vertex 52.3875 0 -18.415
      vertex 63.8964 0 -1.83751
      vertex 52.3875 0 -15.24
    endloop
  endfacet
  facet normal 0 -1 0
    outer loop
      vertex 52.3875 0 -18.415
      vertex 52.3875 0 -15.24
      vertex 47.9425 0 -18.415
    endloop
  endfacet
  facet normal 0 -1 -0
    outer loop
      vertex 64.8047 0 -1.54239
      vertex 52.3875 0 -18.415
      vertex 94.2975 0 -18.415
    endloop
  endfacet
  facet normal 0 -1 0
    outer loop
      vertex 66.7249 0 0.502445
      vertex 94.2975 0 -18.415
      vertex 94.2975 0 5.08
    endloop
  endfacet
  facet normal 0 -1 0
    outer loop
      vertex 22.5425 0 0
      vertex 0 0 10.795
      vertex 0 0 0
    endloop
  endfacet
  facet normal 0 -1 0
    outer loop
      vertex 0 0 10.795
      vertex 22.5425 0 0
      vertex 25.7175 0 10.795
    endloop
  endfacet
  facet normal 0 -1 -0
    outer loop
      vertex 25.7175 0 10.795
      vertex 22.5425 0 0
      vertex 25.7175 0 0
    endloop
  endfacet
  facet normal 0 1 0
    outer loop
      vertex 52.3875 57.15 5.08
      vertex 55.5625 57.15 10.795
      vertex 55.5625 57.15 5.08
    endloop
  endfacet
  facet normal 0 1 0
    outer loop
      vertex 55.5625 57.15 10.795
      vertex 52.3875 57.15 5.08
      vertex 15.875 57.15 10.795
    endloop
  endfacet
  facet normal 0 1 0
    outer loop
      vertex 15.875 57.15 0
      vertex 52.3875 57.15 5.08
      vertex 52.3875 57.15 0
    endloop
  endfacet
  facet normal 0 1 0
    outer loop
      vertex 52.3875 57.15 5.08
      vertex 15.875 57.15 0
      vertex 15.875 57.15 10.795
    endloop
  endfacet
  facet normal 1 -0 0
    outer loop
      vertex 3.175 3.175 10.795
      vertex 3.175 44.45 3.175
      vertex 3.175 44.45 10.795
    endloop
  endfacet
  facet normal 1 0 0
    outer loop
      vertex 3.175 44.45 3.175
      vertex 3.175 3.175 10.795
      vertex 3.175 3.175 3.175
    endloop
  endfacet
  facet normal -1 0 0
    outer loop
      vertex 52.3875 74.93 -18.415
      vertex 52.3875 57.15 0
      vertex 52.3875 74.93 5.08
    endloop
  endfacet
  facet normal -1 0 0
    outer loop
      vertex 52.3875 25.4 -18.415
      vertex 52.3875 57.15 0
      vertex 52.3875 74.93 -18.415
    endloop
  endfacet
  facet normal -1 0 0
    outer loop
      vertex 52.3875 25.4 -15.24
      vertex 52.3875 57.15 0
      vertex 52.3875 25.4 -18.415
    endloop
  endfacet
  facet normal -1 0 0
    outer loop
      vertex 52.3875 0 0
      vertex 52.3875 25.4 -15.24
      vertex 52.3875 0 -15.24
    endloop
  endfacet
  facet normal -1 0 0
    outer loop
      vertex 52.3875 25.4 -15.24
      vertex 52.3875 0 0
      vertex 52.3875 57.15 0
    endloop
  endfacet
  facet normal -1 -0 0
    outer loop
      vertex 52.3875 74.93 5.08
      vertex 52.3875 57.15 0
      vertex 52.3875 57.15 5.08
    endloop
  endfacet
  facet normal 0 0 0
    outer loop
      vertex 52.3875 25.4 -18.415
      vertex 52.3875 74.93 -18.415
      vertex 52.3875 0 -18.415
    endloop
  endfacet
  facet normal -1 0 0
    outer loop
      vertex 52.3875 3.175 5.08
      vertex 52.3875 53.975 10.795
      vertex 52.3875 53.975 5.08
    endloop
  endfacet
  facet normal -1 -0 0
    outer loop
      vertex 52.3875 53.975 10.795
      vertex 52.3875 3.175 5.08
      vertex 52.3875 3.175 10.795
    endloop
  endfacet
  facet normal -1 0 0
    outer loop
      vertex 52.3875 3.175 3.175
      vertex 52.3875 53.975 5.08
      vertex 52.3875 53.975 3.175
    endloop
  endfacet
  facet normal -1 -0 0
    outer loop
      vertex 52.3875 53.975 5.08
      vertex 52.3875 3.175 3.175
      vertex 52.3875 3.175 5.08
    endloop
  endfacet
  facet normal 0 -1 0
    outer loop
      vertex 12.7 53.975 10.795
      vertex 52.3875 53.975 5.08
      vertex 52.3875 53.975 10.795
    endloop
  endfacet
  facet normal 0 -1 0
    outer loop
      vertex 12.7 53.975 3.175
      vertex 52.3875 53.975 5.08
      vertex 12.7 53.975 10.795
    endloop
  endfacet
  facet normal 0 -1 -0
    outer loop
      vertex 52.3875 53.975 5.08
      vertex 12.7 53.975 3.175
      vertex 52.3875 53.975 3.175
    endloop
  endfacet
  facet normal 0 0 1
    outer loop
      vertex 52.3875 53.975 3.175
      vertex 44.7675 40.64 3.175
      vertex 52.3875 3.175 3.175
    endloop
  endfacet
  facet normal 0 0 1
    outer loop
      vertex 52.3875 53.975 3.175
      vertex 25.7175 40.64 3.175
      vertex 44.7675 40.64 3.175
    endloop
  endfacet
  facet normal -0 0 1
    outer loop
      vertex 12.7 53.975 3.175
      vertex 25.7175 40.64 3.175
      vertex 52.3875 53.975 3.175
    endloop
  endfacet
  facet normal -0 0 1
    outer loop
      vertex 3.175 44.45 3.175
      vertex 25.7175 40.64 3.175
      vertex 12.7 53.975 3.175
    endloop
  endfacet
  facet normal 0 0 1
    outer loop
      vertex 3.175 3.175 3.175
      vertex 25.7175 40.64 3.175
      vertex 3.175 44.45 3.175
    endloop
  endfacet
  facet normal 0 0 1
    outer loop
      vertex 25.7175 40.64 3.175
      vertex 3.175 3.175 3.175
      vertex 25.7175 3.175 3.175
    endloop
  endfacet
  facet normal 0 0 1
    outer loop
      vertex 52.3875 3.175 3.175
      vertex 44.7675 40.64 3.175
      vertex 44.7675 3.175 3.175
    endloop
  endfacet
  facet normal 0 1 -0
    outer loop
      vertex 25.7175 3.175 3.175
      vertex 3.175 3.175 10.795
      vertex 25.7175 3.175 10.795
    endloop
  endfacet
  facet normal 0 1 0
    outer loop
      vertex 3.175 3.175 10.795
      vertex 25.7175 3.175 3.175
      vertex 3.175 3.175 3.175
    endloop
  endfacet
  facet normal 0 1 -0
    outer loop
      vertex 52.3875 3.175 5.08
      vertex 44.7675 3.175 10.795
      vertex 52.3875 3.175 10.795
    endloop
  endfacet
  facet normal 0 1 0
    outer loop
      vertex 44.7675 3.175 3.175
      vertex 52.3875 3.175 5.08
      vertex 52.3875 3.175 3.175
    endloop
  endfacet
  facet normal 0 1 0
    outer loop
      vertex 52.3875 3.175 5.08
      vertex 44.7675 3.175 3.175
      vertex 44.7675 3.175 10.795
    endloop
  endfacet
  facet normal -0.707107 0.707106 0
    outer loop
      vertex 15.875 57.15 0
      vertex 12.7 53.975 3.175
      vertex 15.875 57.15 10.795
    endloop
  endfacet
  facet normal -0.707107 0.707107 5.66383e-07
    outer loop
      vertex 15.875 57.15 0
      vertex 3.175 44.45 3.175
      vertex 12.7 53.975 3.175
    endloop
  endfacet
  facet normal -0.707107 0.707107 8.49574e-07
    outer loop
      vertex 0 41.275 0
      vertex 3.175 44.45 3.175
      vertex 15.875 57.15 0
    endloop
  endfacet
  facet normal -0.707106 0.707107 0
    outer loop
      vertex 0 41.275 10.795
      vertex 3.175 44.45 3.175
      vertex 0 41.275 0
    endloop
  endfacet
  facet normal -0.707106 0.707107 0
    outer loop
      vertex 3.175 44.45 3.175
      vertex 0 41.275 10.795
      vertex 3.175 44.45 10.795
    endloop
  endfacet
  facet normal -0.707107 0.707106 0
    outer loop
      vertex 15.875 57.15 10.795
      vertex 12.7 53.975 3.175
      vertex 12.7 53.975 10.795
    endloop
  endfacet
  facet normal 1 0 0
    outer loop
      vertex 25.7175 3.175 10.795
      vertex 25.7175 0 10.795
      vertex 25.7175 3.175 3.175
    endloop
  endfacet
  facet normal 1 -0 0
    outer loop
      vertex 25.7175 3.175 3.175
      vertex 25.7175 40.64 -15.24
      vertex 25.7175 40.64 3.175
    endloop
  endfacet
  facet normal 1 0 0
    outer loop
      vertex 25.7175 0 0
      vertex 25.7175 3.175 3.175
      vertex 25.7175 0 10.795
    endloop
  endfacet
  facet normal 1 -0 0
    outer loop
      vertex 25.7175 0 0
      vertex 25.7175 40.64 -15.24
      vertex 25.7175 3.175 3.175
    endloop
  endfacet
  facet normal 1 0 0
    outer loop
      vertex 25.7175 -13.335 -15.24
      vertex 25.7175 0 0
      vertex 25.7175 -13.335 0
    endloop
  endfacet
  facet normal 1 0 0
    outer loop
      vertex 25.7175 0 0
      vertex 25.7175 -13.335 -15.24
      vertex 25.7175 40.64 -15.24
    endloop
  endfacet
  facet normal -1 0 0
    outer loop
      vertex 44.7675 -13.335 -15.24
      vertex 44.7675 0 0
      vertex 44.7675 0 -15.24
    endloop
  endfacet
  facet normal -1 -0 0
    outer loop
      vertex 44.7675 0 0
      vertex 44.7675 -13.335 -15.24
      vertex 44.7675 -13.335 0
    endloop
  endfacet
  facet normal -1 0 0
    outer loop
      vertex 44.7675 25.4 -15.24
      vertex 44.7675 40.64 3.175
      vertex 44.7675 40.64 -15.24
    endloop
  endfacet
  facet normal -1 0 0
    outer loop
      vertex 44.7675 25.4 -15.24
      vertex 44.7675 3.175 3.175
      vertex 44.7675 40.64 3.175
    endloop
  endfacet
  facet normal -1 0 0
    outer loop
      vertex 44.7675 0 -15.24
      vertex 44.7675 3.175 3.175
      vertex 44.7675 25.4 -15.24
    endloop
  endfacet
  facet normal -1 0 0
    outer loop
      vertex 44.7675 0 0
      vertex 44.7675 3.175 3.175
      vertex 44.7675 0 -15.24
    endloop
  endfacet
  facet normal -1 0 0
    outer loop
      vertex 44.7675 0 10.795
      vertex 44.7675 3.175 3.175
      vertex 44.7675 0 0
    endloop
  endfacet
  facet normal -1 0 0
    outer loop
      vertex 44.7675 3.175 3.175
      vertex 44.7675 0 10.795
      vertex 44.7675 3.175 10.795
    endloop
  endfacet
  facet normal 0 -1 0
    outer loop
      vertex 25.7175 40.64 -15.24
      vertex 44.7675 40.64 3.175
      vertex 25.7175 40.64 3.175
    endloop
  endfacet
  facet normal 0 -1 -0
    outer loop
      vertex 44.7675 40.64 3.175
      vertex 25.7175 40.64 -15.24
      vertex 44.7675 40.64 -15.24
    endloop
  endfacet
  facet normal -1 0 0
    outer loop
      vertex 22.5425 43.815 -18.415
      vertex 22.5425 0 0
      vertex 22.5425 43.815 0
    endloop
  endfacet
  facet normal -1 0 0
    outer loop
      vertex 22.5425 -13.335 -18.415
      vertex 22.5425 0 0
      vertex 22.5425 43.815 -18.415
    endloop
  endfacet
  facet normal -1 -0 0
    outer loop
      vertex 22.5425 0 0
      vertex 22.5425 -13.335 -18.415
      vertex 22.5425 -13.335 0
    endloop
  endfacet
  facet normal 1 0 0
    outer loop
      vertex 47.9425 43.815 0
      vertex 47.9425 25.4 -15.24
      vertex 47.9425 43.815 -18.415
    endloop
  endfacet
  facet normal 1 -0 0
    outer loop
      vertex 47.9425 0 0
      vertex 47.9425 25.4 -15.24
      vertex 47.9425 43.815 0
    endloop
  endfacet
  facet normal 1 0 0
    outer loop
      vertex 47.9425 0 0
      vertex 47.9425 0 -15.24
      vertex 47.9425 25.4 -15.24
    endloop
  endfacet
  facet normal 1 -0 0
    outer loop
      vertex 47.9425 -13.335 0
      vertex 47.9425 0 -15.24
      vertex 47.9425 0 0
    endloop
  endfacet
  facet normal 1 0 0
    outer loop
      vertex 47.9425 -13.335 -18.415
      vertex 47.9425 0 -15.24
      vertex 47.9425 -13.335 0
    endloop
  endfacet
  facet normal 1 0 0
    outer loop
      vertex 47.9425 0 -15.24
      vertex 47.9425 -13.335 -18.415
      vertex 47.9425 0 -18.415
    endloop
  endfacet
  facet normal 1 0 0
    outer loop
      vertex 47.9425 43.815 -18.415
      vertex 47.9425 25.4 -15.24
      vertex 47.9425 25.4 -18.415
    endloop
  endfacet
  facet normal 0 1 -0
    outer loop
      vertex 47.9425 43.815 -18.415
      vertex 22.5425 43.815 0
      vertex 47.9425 43.815 0
    endloop
  endfacet
  facet normal 0 1 0
    outer loop
      vertex 22.5425 43.815 0
      vertex 47.9425 43.815 -18.415
      vertex 22.5425 43.815 -18.415
    endloop
  endfacet
  facet normal 0 0 -1
    outer loop
      vertex 22.5425 -13.335 -18.415
      vertex 47.9425 0 -18.415
      vertex 47.9425 -13.335 -18.415
    endloop
  endfacet
  facet normal -0 0 -1
    outer loop
      vertex 47.9425 0 -18.415
      vertex 22.5425 -13.335 -18.415
      vertex 47.9425 25.4 -18.415
    endloop
  endfacet
  facet normal 0 0 -1
    outer loop
      vertex 22.5425 43.815 -18.415
      vertex 47.9425 25.4 -18.415
      vertex 22.5425 -13.335 -18.415
    endloop
  endfacet
  facet normal 0 0 -1
    outer loop
      vertex 47.9425 25.4 -18.415
      vertex 22.5425 43.815 -18.415
      vertex 47.9425 43.815 -18.415
    endloop
  endfacet
  facet normal 0 0 -1
    outer loop
      vertex 47.9425 0 -18.415
      vertex 52.3875 25.4 -18.415
      vertex 52.3875 0 -18.415
    endloop
  endfacet
  facet normal -0 0 -1
    outer loop
      vertex 52.3875 25.4 -18.415
      vertex 47.9425 0 -18.415
      vertex 47.9425 25.4 -18.415
    endloop
  endfacet
  facet normal 0 -1 0
    outer loop
      vertex 22.5425 -13.335 0
      vertex 25.7175 -13.335 -15.24
      vertex 25.7175 -13.335 0
    endloop
  endfacet
  facet normal 0 -1 -0
    outer loop
      vertex 25.7175 -13.335 -15.24
      vertex 22.5425 -13.335 -18.415
      vertex 44.7675 -13.335 -15.24
    endloop
  endfacet
  facet normal 0 -1 0
    outer loop
      vertex 22.5425 -13.335 -18.415
      vertex 25.7175 -13.335 -15.24
      vertex 22.5425 -13.335 0
    endloop
  endfacet
  facet normal 0 -1 0
    outer loop
      vertex 44.7675 -13.335 -15.24
      vertex 47.9425 -13.335 0
      vertex 44.7675 -13.335 0
    endloop
  endfacet
  facet normal 0 -1 0
    outer loop
      vertex 44.7675 -13.335 -15.24
      vertex 47.9425 -13.335 -18.415
      vertex 47.9425 -13.335 0
    endloop
  endfacet
  facet normal 0 -1 0
    outer loop
      vertex 47.9425 -13.335 -18.415
      vertex 44.7675 -13.335 -15.24
      vertex 22.5425 -13.335 -18.415
    endloop
  endfacet
  facet normal 0 0 1
    outer loop
      vertex 44.7675 40.64 -15.24
      vertex 39.6875 25.4 -15.24
      vertex 44.7675 25.4 -15.24
    endloop
  endfacet
  facet normal 0 0 1
    outer loop
      vertex 25.7175 -13.335 -15.24
      vertex 39.6875 25.4 -15.24
      vertex 25.7175 40.64 -15.24
    endloop
  endfacet
  facet normal -0 0 1
    outer loop
      vertex 25.7175 40.64 -15.24
      vertex 39.6875 25.4 -15.24
      vertex 44.7675 40.64 -15.24
    endloop
  endfacet
  facet normal -0 0 1
    outer loop
      vertex 39.6875 0 -15.24
      vertex 44.7675 -13.335 -15.24
      vertex 44.7675 0 -15.24
    endloop
  endfacet
  facet normal 0 0 1
    outer loop
      vertex 39.6875 0 -15.24
      vertex 25.7175 -13.335 -15.24
      vertex 44.7675 -13.335 -15.24
    endloop
  endfacet
  facet normal 0 0 1
    outer loop
      vertex 39.6875 25.4 -15.24
      vertex 25.7175 -13.335 -15.24
      vertex 39.6875 0 -15.24
    endloop
  endfacet
  facet normal -0 0 1
    outer loop
      vertex 39.6875 25.4 -15.24
      vertex 44.7675 0 -15.24
      vertex 44.7675 25.4 -15.24
    endloop
  endfacet
  facet normal 0 0 1
    outer loop
      vertex 44.7675 0 -15.24
      vertex 39.6875 25.4 -15.24
      vertex 39.6875 0 -15.24
    endloop
  endfacet
  facet normal -0 0 1
    outer loop
      vertex 55.5625 25.4 -15.24
      vertex 65.0875 3.175 -15.24
      vertex 65.0875 25.4 -15.24
    endloop
  endfacet
  facet normal 0 0 1
    outer loop
      vertex 65.0875 3.175 -15.24
      vertex 55.5625 25.4 -15.24
      vertex 55.5625 3.175 -15.24
    endloop
  endfacet
  facet normal -0 0 1
    outer loop
      vertex 47.9425 25.4 -15.24
      vertex 52.3875 0 -15.24
      vertex 52.3875 25.4 -15.24
    endloop
  endfacet
  facet normal 0 0 1
    outer loop
      vertex 52.3875 0 -15.24
      vertex 47.9425 25.4 -15.24
      vertex 47.9425 0 -15.24
    endloop
  endfacet
  facet normal 0 0 1
    outer loop
      vertex 94.2975 74.93 5.08
      vertex 91.1225 71.755 5.08
      vertex 94.2975 0 5.08
    endloop
  endfacet
  facet normal 0 0 1
    outer loop
      vertex 94.2975 74.93 5.08
      vertex 55.5625 71.755 5.08
      vertex 91.1225 71.755 5.08
    endloop
  endfacet
  facet normal -0 0 1
    outer loop
      vertex 52.3875 74.93 5.08
      vertex 55.5625 71.755 5.08
      vertex 94.2975 74.93 5.08
    endloop
  endfacet
  facet normal 0 0 1
    outer loop
      vertex 52.3875 57.15 5.08
      vertex 55.5625 71.755 5.08
      vertex 52.3875 74.93 5.08
    endloop
  endfacet
  facet normal 0 0 1
    outer loop
      vertex 55.5625 71.755 5.08
      vertex 52.3875 57.15 5.08
      vertex 55.5625 57.15 5.08
    endloop
  endfacet
  facet normal -0 0 1
    outer loop
      vertex 91.1225 3.175 5.08
      vertex 94.2975 0 5.08
      vertex 91.1225 71.755 5.08
    endloop
  endfacet
  facet normal 0 0 1
    outer loop
      vertex 66.9925 0 5.08
      vertex 91.1225 3.175 5.08
      vertex 66.9925 3.175 5.08
    endloop
  endfacet
  facet normal 0 0 1
    outer loop
      vertex 91.1225 3.175 5.08
      vertex 66.9925 0 5.08
      vertex 94.2975 0 5.08
    endloop
  endfacet
  facet normal -0 0 1
    outer loop
      vertex 55.5625 3.175 5.08
      vertex 59.3725 0 5.08
      vertex 59.3725 3.175 5.08
    endloop
  endfacet
  facet normal 0 0 1
    outer loop
      vertex 59.3725 0 5.08
      vertex 55.5625 3.175 5.08
      vertex 55.5625 0 5.08
    endloop
  endfacet
  facet normal 1 -0 0
    outer loop
      vertex 94.2975 0 5.08
      vertex 94.2975 74.93 -18.415
      vertex 94.2975 74.93 5.08
    endloop
  endfacet
  facet normal 1 0 0
    outer loop
      vertex 94.2975 74.93 -18.415
      vertex 94.2975 0 5.08
      vertex 94.2975 0 -18.415
    endloop
  endfacet
  facet normal 0 0 -1
    outer loop
      vertex 94.2975 0 -18.415
      vertex 82.2325 34.29 -18.415
      vertex 94.2975 74.93 -18.415
    endloop
  endfacet
  facet normal 0 0 -1
    outer loop
      vertex 94.2975 0 -18.415
      vertex 82.1624 33.1758 -18.415
      vertex 82.2325 34.29 -18.415
    endloop
  endfacet
  facet normal 0 0 -1
    outer loop
      vertex 94.2975 0 -18.415
      vertex 81.9532 32.0791 -18.415
      vertex 82.1624 33.1758 -18.415
    endloop
  endfacet
  facet normal 0 0 -1
    outer loop
      vertex 94.2975 0 -18.415
      vertex 81.6082 31.0174 -18.415
      vertex 81.9532 32.0791 -18.415
    endloop
  endfacet
  facet normal 0 0 -1
    outer loop
      vertex 94.2975 0 -18.415
      vertex 81.1329 30.0072 -18.415
      vertex 81.6082 31.0174 -18.415
    endloop
  endfacet
  facet normal 0 0 -1
    outer loop
      vertex 94.2975 0 -18.415
      vertex 80.5347 29.0646 -18.415
      vertex 81.1329 30.0072 -18.415
    endloop
  endfacet
  facet normal 0 0 -1
    outer loop
      vertex 94.2975 0 -18.415
      vertex 79.823 28.2044 -18.415
      vertex 80.5347 29.0646 -18.415
    endloop
  endfacet
  facet normal 0 0 -1
    outer loop
      vertex 94.2975 0 -18.415
      vertex 79.0092 27.4401 -18.415
      vertex 79.823 28.2044 -18.415
    endloop
  endfacet
  facet normal 0 0 -1
    outer loop
      vertex 94.2975 0 -18.415
      vertex 78.106 26.7839 -18.415
      vertex 79.0092 27.4401 -18.415
    endloop
  endfacet
  facet normal 0 0 -1
    outer loop
      vertex 94.2975 0 -18.415
      vertex 77.1277 26.2461 -18.415
      vertex 78.106 26.7839 -18.415
    endloop
  endfacet
  facet normal 0 0 -1
    outer loop
      vertex 94.2975 0 -18.415
      vertex 76.0897 25.8351 -18.415
      vertex 77.1277 26.2461 -18.415
    endloop
  endfacet
  facet normal 0 0 -1
    outer loop
      vertex 94.2975 0 -18.415
      vertex 75.0083 25.5575 -18.415
      vertex 76.0897 25.8351 -18.415
    endloop
  endfacet
  facet normal 0 0 -1
    outer loop
      vertex 94.2975 0 -18.415
      vertex 73.9007 25.4175 -18.415
      vertex 75.0083 25.5575 -18.415
    endloop
  endfacet
  facet normal 0 0 -1
    outer loop
      vertex 94.2975 0 -18.415
      vertex 72.7843 25.4175 -18.415
      vertex 73.9007 25.4175 -18.415
    endloop
  endfacet
  facet normal 0 0 -1
    outer loop
      vertex 52.3875 0 -18.415
      vertex 72.7843 25.4175 -18.415
      vertex 94.2975 0 -18.415
    endloop
  endfacet
  facet normal -0 0 -1
    outer loop
      vertex 72.7843 25.4175 -18.415
      vertex 52.3875 0 -18.415
      vertex 71.6767 25.5575 -18.415
    endloop
  endfacet
  facet normal -0 0 -1
    outer loop
      vertex 71.6767 25.5575 -18.415
      vertex 52.3875 0 -18.415
      vertex 70.5953 25.8351 -18.415
    endloop
  endfacet
  facet normal -0 0 -1
    outer loop
      vertex 70.5953 25.8351 -18.415
      vertex 52.3875 0 -18.415
      vertex 69.5573 26.2461 -18.415
    endloop
  endfacet
  facet normal -0 0 -1
    outer loop
      vertex 69.5573 26.2461 -18.415
      vertex 52.3875 0 -18.415
      vertex 68.579 26.7839 -18.415
    endloop
  endfacet
  facet normal -0 0 -1
    outer loop
      vertex 68.579 26.7839 -18.415
      vertex 52.3875 0 -18.415
      vertex 67.6758 27.4401 -18.415
    endloop
  endfacet
  facet normal -0 0 -1
    outer loop
      vertex 64.5226 33.1758 -18.415
      vertex 52.3875 0 -18.415
      vertex 64.4525 34.29 -18.415
    endloop
  endfacet
  facet normal -0 0 -1
    outer loop
      vertex 64.7318 32.0791 -18.415
      vertex 52.3875 0 -18.415
      vertex 64.5226 33.1758 -18.415
    endloop
  endfacet
  facet normal -0 0 -1
    outer loop
      vertex 65.0768 31.0174 -18.415
      vertex 52.3875 0 -18.415
      vertex 64.7318 32.0791 -18.415
    endloop
  endfacet
  facet normal -0 0 -1
    outer loop
      vertex 65.5521 30.0072 -18.415
      vertex 52.3875 0 -18.415
      vertex 65.0768 31.0174 -18.415
    endloop
  endfacet
  facet normal -0 0 -1
    outer loop
      vertex 66.1503 29.0646 -18.415
      vertex 52.3875 0 -18.415
      vertex 65.5521 30.0072 -18.415
    endloop
  endfacet
  facet normal -0 0 -1
    outer loop
      vertex 66.862 28.2044 -18.415
      vertex 52.3875 0 -18.415
      vertex 66.1503 29.0646 -18.415
    endloop
  endfacet
  facet normal -0 0 -1
    outer loop
      vertex 67.6758 27.4401 -18.415
      vertex 52.3875 0 -18.415
      vertex 66.862 28.2044 -18.415
    endloop
  endfacet
  facet normal 0 0 -1
    outer loop
      vertex 82.1624 35.4042 -18.415
      vertex 94.2975 74.93 -18.415
      vertex 82.2325 34.29 -18.415
    endloop
  endfacet
  facet normal 0 0 -1
    outer loop
      vertex 81.9532 36.5009 -18.415
      vertex 94.2975 74.93 -18.415
      vertex 82.1624 35.4042 -18.415
    endloop
  endfacet
  facet normal 0 0 -1
    outer loop
      vertex 81.6082 37.5626 -18.415
      vertex 94.2975 74.93 -18.415
      vertex 81.9532 36.5009 -18.415
    endloop
  endfacet
  facet normal 0 0 -1
    outer loop
      vertex 81.1329 38.5728 -18.415
      vertex 94.2975 74.93 -18.415
      vertex 81.6082 37.5626 -18.415
    endloop
  endfacet
  facet normal 0 0 -1
    outer loop
      vertex 80.5347 39.5154 -18.415
      vertex 94.2975 74.93 -18.415
      vertex 81.1329 38.5728 -18.415
    endloop
  endfacet
  facet normal 0 0 -1
    outer loop
      vertex 79.823 40.3756 -18.415
      vertex 94.2975 74.93 -18.415
      vertex 80.5347 39.5154 -18.415
    endloop
  endfacet
  facet normal 0 0 -1
    outer loop
      vertex 79.0092 41.1399 -18.415
      vertex 94.2975 74.93 -18.415
      vertex 79.823 40.3756 -18.415
    endloop
  endfacet
  facet normal 0 0 -1
    outer loop
      vertex 78.106 41.7961 -18.415
      vertex 94.2975 74.93 -18.415
      vertex 79.0092 41.1399 -18.415
    endloop
  endfacet
  facet normal 0 0 -1
    outer loop
      vertex 77.1277 42.3339 -18.415
      vertex 94.2975 74.93 -18.415
      vertex 78.106 41.7961 -18.415
    endloop
  endfacet
  facet normal 0 0 -1
    outer loop
      vertex 76.0897 42.7449 -18.415
      vertex 94.2975 74.93 -18.415
      vertex 77.1277 42.3339 -18.415
    endloop
  endfacet
  facet normal 0 0 -1
    outer loop
      vertex 75.0083 43.0225 -18.415
      vertex 94.2975 74.93 -18.415
      vertex 76.0897 42.7449 -18.415
    endloop
  endfacet
  facet normal 0 0 -1
    outer loop
      vertex 73.9007 43.1625 -18.415
      vertex 94.2975 74.93 -18.415
      vertex 75.0083 43.0225 -18.415
    endloop
  endfacet
  facet normal 0 0 -1
    outer loop
      vertex 72.7843 43.1625 -18.415
      vertex 94.2975 74.93 -18.415
      vertex 73.9007 43.1625 -18.415
    endloop
  endfacet
  facet normal 0 0 -1
    outer loop
      vertex 52.3875 74.93 -18.415
      vertex 72.7843 43.1625 -18.415
      vertex 71.6767 43.0225 -18.415
    endloop
  endfacet
  facet normal 0 0 -1
    outer loop
      vertex 52.3875 74.93 -18.415
      vertex 71.6767 43.0225 -18.415
      vertex 70.5953 42.7449 -18.415
    endloop
  endfacet
  facet normal 0 0 -1
    outer loop
      vertex 52.3875 74.93 -18.415
      vertex 70.5953 42.7449 -18.415
      vertex 69.5573 42.3339 -18.415
    endloop
  endfacet
  facet normal 0 0 -1
    outer loop
      vertex 52.3875 74.93 -18.415
      vertex 69.5573 42.3339 -18.415
      vertex 68.579 41.7961 -18.415
    endloop
  endfacet
  facet normal 0 0 -1
    outer loop
      vertex 52.3875 74.93 -18.415
      vertex 68.579 41.7961 -18.415
      vertex 67.6758 41.1399 -18.415
    endloop
  endfacet
  facet normal 0 0 -1
    outer loop
      vertex 52.3875 74.93 -18.415
      vertex 67.6758 41.1399 -18.415
      vertex 66.862 40.3756 -18.415
    endloop
  endfacet
  facet normal 0 0 -1
    outer loop
      vertex 52.3875 74.93 -18.415
      vertex 66.862 40.3756 -18.415
      vertex 66.1503 39.5154 -18.415
    endloop
  endfacet
  facet normal 0 0 -1
    outer loop
      vertex 52.3875 74.93 -18.415
      vertex 64.4525 34.29 -18.415
      vertex 52.3875 0 -18.415
    endloop
  endfacet
  facet normal 0 0 -1
    outer loop
      vertex 64.4525 34.29 -18.415
      vertex 52.3875 74.93 -18.415
      vertex 64.5226 35.4042 -18.415
    endloop
  endfacet
  facet normal 0 0 -1
    outer loop
      vertex 64.5226 35.4042 -18.415
      vertex 52.3875 74.93 -18.415
      vertex 64.7318 36.5009 -18.415
    endloop
  endfacet
  facet normal 0 0 -1
    outer loop
      vertex 72.7843 43.1625 -18.415
      vertex 52.3875 74.93 -18.415
      vertex 94.2975 74.93 -18.415
    endloop
  endfacet
  facet normal 0 0 -1
    outer loop
      vertex 65.5521 38.5728 -18.415
      vertex 52.3875 74.93 -18.415
      vertex 66.1503 39.5154 -18.415
    endloop
  endfacet
  facet normal 0 0 -1
    outer loop
      vertex 65.0768 37.5626 -18.415
      vertex 52.3875 74.93 -18.415
      vertex 65.5521 38.5728 -18.415
    endloop
  endfacet
  facet normal 0 0 -1
    outer loop
      vertex 64.7318 36.5009 -18.415
      vertex 52.3875 74.93 -18.415
      vertex 65.0768 37.5626 -18.415
    endloop
  endfacet
  facet normal 0 1 -0
    outer loop
      vertex 94.2975 74.93 -18.415
      vertex 52.3875 74.93 5.08
      vertex 94.2975 74.93 5.08
    endloop
  endfacet
  facet normal 0 1 0
    outer loop
      vertex 52.3875 74.93 5.08
      vertex 94.2975 74.93 -18.415
      vertex 52.3875 74.93 -18.415
    endloop
  endfacet
  facet normal -1 0 0
    outer loop
      vertex 91.1225 3.175 -15.24
      vertex 91.1225 71.755 5.08
      vertex 91.1225 71.755 -15.24
    endloop
  endfacet
  facet normal -1 -0 0
    outer loop
      vertex 91.1225 71.755 5.08
      vertex 91.1225 3.175 -15.24
      vertex 91.1225 3.175 5.08
    endloop
  endfacet
  facet normal 0 -1 0
    outer loop
      vertex 55.5625 71.755 -15.24
      vertex 91.1225 71.755 5.08
      vertex 55.5625 71.755 5.08
    endloop
  endfacet
  facet normal 0 -1 -0
    outer loop
      vertex 91.1225 71.755 5.08
      vertex 55.5625 71.755 -15.24
      vertex 91.1225 71.755 -15.24
    endloop
  endfacet
  facet normal 0 0 1
    outer loop
      vertex 65.0768 31.0174 -15.24
      vertex 65.0875 25.4 -15.24
      vertex 65.5521 30.0072 -15.24
    endloop
  endfacet
  facet normal 0 0 1
    outer loop
      vertex 55.5625 25.4 -15.24
      vertex 65.0768 31.0174 -15.24
      vertex 64.7318 32.0791 -15.24
    endloop
  endfacet
  facet normal 0 0 1
    outer loop
      vertex 55.5625 25.4 -15.24
      vertex 64.7318 32.0791 -15.24
      vertex 64.5226 33.1758 -15.24
    endloop
  endfacet
  facet normal 0 0 1
    outer loop
      vertex 64.5226 35.4042 -15.24
      vertex 55.5625 25.4 -15.24
      vertex 64.4525 34.29 -15.24
    endloop
  endfacet
  facet normal 0 0 1
    outer loop
      vertex 64.4525 34.29 -15.24
      vertex 55.5625 25.4 -15.24
      vertex 64.5226 33.1758 -15.24
    endloop
  endfacet
  facet normal 0 0 1
    outer loop
      vertex 65.0768 31.0174 -15.24
      vertex 55.5625 25.4 -15.24
      vertex 65.0875 25.4 -15.24
    endloop
  endfacet
  facet normal 0 0 1
    outer loop
      vertex 91.1225 71.755 -15.24
      vertex 82.2325 34.29 -15.24
      vertex 91.1225 3.175 -15.24
    endloop
  endfacet
  facet normal 0 0 1
    outer loop
      vertex 91.1225 71.755 -15.24
      vertex 82.1624 35.4042 -15.24
      vertex 82.2325 34.29 -15.24
    endloop
  endfacet
  facet normal 0 0 1
    outer loop
      vertex 91.1225 71.755 -15.24
      vertex 81.9532 36.5009 -15.24
      vertex 82.1624 35.4042 -15.24
    endloop
  endfacet
  facet normal 0 0 1
    outer loop
      vertex 91.1225 71.755 -15.24
      vertex 81.6082 37.5626 -15.24
      vertex 81.9532 36.5009 -15.24
    endloop
  endfacet
  facet normal 0 0 1
    outer loop
      vertex 91.1225 71.755 -15.24
      vertex 81.1329 38.5728 -15.24
      vertex 81.6082 37.5626 -15.24
    endloop
  endfacet
  facet normal 0 0 1
    outer loop
      vertex 91.1225 71.755 -15.24
      vertex 80.5347 39.5154 -15.24
      vertex 81.1329 38.5728 -15.24
    endloop
  endfacet
  facet normal 0 0 1
    outer loop
      vertex 91.1225 71.755 -15.24
      vertex 79.823 40.3756 -15.24
      vertex 80.5347 39.5154 -15.24
    endloop
  endfacet
  facet normal 0 0 1
    outer loop
      vertex 91.1225 71.755 -15.24
      vertex 79.0092 41.1399 -15.24
      vertex 79.823 40.3756 -15.24
    endloop
  endfacet
  facet normal 0 0 1
    outer loop
      vertex 91.1225 71.755 -15.24
      vertex 78.106 41.7961 -15.24
      vertex 79.0092 41.1399 -15.24
    endloop
  endfacet
  facet normal 0 0 1
    outer loop
      vertex 91.1225 71.755 -15.24
      vertex 77.1277 42.3339 -15.24
      vertex 78.106 41.7961 -15.24
    endloop
  endfacet
  facet normal 0 0 1
    outer loop
      vertex 91.1225 71.755 -15.24
      vertex 76.0897 42.7449 -15.24
      vertex 77.1277 42.3339 -15.24
    endloop
  endfacet
  facet normal 0 0 1
    outer loop
      vertex 91.1225 71.755 -15.24
      vertex 75.0083 43.0225 -15.24
      vertex 76.0897 42.7449 -15.24
    endloop
  endfacet
  facet normal 0 0 1
    outer loop
      vertex 91.1225 71.755 -15.24
      vertex 73.9007 43.1625 -15.24
      vertex 75.0083 43.0225 -15.24
    endloop
  endfacet
  facet normal 0 0 1
    outer loop
      vertex 91.1225 71.755 -15.24
      vertex 72.7843 43.1625 -15.24
      vertex 73.9007 43.1625 -15.24
    endloop
  endfacet
  facet normal -0 0 1
    outer loop
      vertex 55.5625 71.755 -15.24
      vertex 72.7843 43.1625 -15.24
      vertex 91.1225 71.755 -15.24
    endloop
  endfacet
  facet normal 0 0 1
    outer loop
      vertex 72.7843 43.1625 -15.24
      vertex 55.5625 71.755 -15.24
      vertex 71.6767 43.0225 -15.24
    endloop
  endfacet
  facet normal 0 0 1
    outer loop
      vertex 71.6767 43.0225 -15.24
      vertex 55.5625 71.755 -15.24
      vertex 70.5953 42.7449 -15.24
    endloop
  endfacet
  facet normal 0 0 1
    outer loop
      vertex 70.5953 42.7449 -15.24
      vertex 55.5625 71.755 -15.24
      vertex 69.5573 42.3339 -15.24
    endloop
  endfacet
  facet normal 0 0 1
    outer loop
      vertex 69.5573 42.3339 -15.24
      vertex 55.5625 71.755 -15.24
      vertex 68.579 41.7961 -15.24
    endloop
  endfacet
  facet normal 0 0 1
    outer loop
      vertex 68.579 41.7961 -15.24
      vertex 55.5625 71.755 -15.24
      vertex 67.6758 41.1399 -15.24
    endloop
  endfacet
  facet normal 0 0 1
    outer loop
      vertex 67.6758 41.1399 -15.24
      vertex 55.5625 71.755 -15.24
      vertex 66.862 40.3756 -15.24
    endloop
  endfacet
  facet normal 0 0 1
    outer loop
      vertex 64.7318 36.5009 -15.24
      vertex 55.5625 25.4 -15.24
      vertex 64.5226 35.4042 -15.24
    endloop
  endfacet
  facet normal 0 0 1
    outer loop
      vertex 65.0768 37.5626 -15.24
      vertex 55.5625 25.4 -15.24
      vertex 64.7318 36.5009 -15.24
    endloop
  endfacet
  facet normal 0 0 1
    outer loop
      vertex 55.5625 25.4 -15.24
      vertex 65.0768 37.5626 -15.24
      vertex 55.5625 71.755 -15.24
    endloop
  endfacet
  facet normal 0 0 1
    outer loop
      vertex 65.5521 38.5728 -15.24
      vertex 55.5625 71.755 -15.24
      vertex 65.0768 37.5626 -15.24
    endloop
  endfacet
  facet normal 0 0 1
    outer loop
      vertex 66.1503 39.5154 -15.24
      vertex 55.5625 71.755 -15.24
      vertex 65.5521 38.5728 -15.24
    endloop
  endfacet
  facet normal 0 0 1
    outer loop
      vertex 66.862 40.3756 -15.24
      vertex 55.5625 71.755 -15.24
      vertex 66.1503 39.5154 -15.24
    endloop
  endfacet
  facet normal -0 0 1
    outer loop
      vertex 82.1624 33.1758 -15.24
      vertex 91.1225 3.175 -15.24
      vertex 82.2325 34.29 -15.24
    endloop
  endfacet
  facet normal -0 0 1
    outer loop
      vertex 81.9532 32.0791 -15.24
      vertex 91.1225 3.175 -15.24
      vertex 82.1624 33.1758 -15.24
    endloop
  endfacet
  facet normal -0 0 1
    outer loop
      vertex 81.6082 31.0174 -15.24
      vertex 91.1225 3.175 -15.24
      vertex 81.9532 32.0791 -15.24
    endloop
  endfacet
  facet normal -0 0 1
    outer loop
      vertex 81.1329 30.0072 -15.24
      vertex 91.1225 3.175 -15.24
      vertex 81.6082 31.0174 -15.24
    endloop
  endfacet
  facet normal -0 0 1
    outer loop
      vertex 80.5347 29.0646 -15.24
      vertex 91.1225 3.175 -15.24
      vertex 81.1329 30.0072 -15.24
    endloop
  endfacet
  facet normal -0 0 1
    outer loop
      vertex 79.823 28.2044 -15.24
      vertex 91.1225 3.175 -15.24
      vertex 80.5347 29.0646 -15.24
    endloop
  endfacet
  facet normal -0 0 1
    outer loop
      vertex 79.0092 27.4401 -15.24
      vertex 91.1225 3.175 -15.24
      vertex 79.823 28.2044 -15.24
    endloop
  endfacet
  facet normal -0 0 1
    outer loop
      vertex 78.106 26.7839 -15.24
      vertex 91.1225 3.175 -15.24
      vertex 79.0092 27.4401 -15.24
    endloop
  endfacet
  facet normal -0 0 1
    outer loop
      vertex 77.1277 26.2461 -15.24
      vertex 91.1225 3.175 -15.24
      vertex 78.106 26.7839 -15.24
    endloop
  endfacet
  facet normal -0 0 1
    outer loop
      vertex 76.0897 25.8351 -15.24
      vertex 91.1225 3.175 -15.24
      vertex 77.1277 26.2461 -15.24
    endloop
  endfacet
  facet normal -0 0 1
    outer loop
      vertex 75.0083 25.5575 -15.24
      vertex 91.1225 3.175 -15.24
      vertex 76.0897 25.8351 -15.24
    endloop
  endfacet
  facet normal 0 0 1
    outer loop
      vertex 65.0875 3.175 -15.24
      vertex 75.0083 25.5575 -15.24
      vertex 73.9007 25.4175 -15.24
    endloop
  endfacet
  facet normal 0 0 1
    outer loop
      vertex 65.0875 3.175 -15.24
      vertex 73.9007 25.4175 -15.24
      vertex 72.7843 25.4175 -15.24
    endloop
  endfacet
  facet normal 0 0 1
    outer loop
      vertex 65.0875 3.175 -15.24
      vertex 72.7843 25.4175 -15.24
      vertex 71.6767 25.5575 -15.24
    endloop
  endfacet
  facet normal 0 0 1
    outer loop
      vertex 65.0875 25.4 -15.24
      vertex 71.6767 25.5575 -15.24
      vertex 70.5953 25.8351 -15.24
    endloop
  endfacet
  facet normal 0 0 1
    outer loop
      vertex 65.0875 25.4 -15.24
      vertex 70.5953 25.8351 -15.24
      vertex 69.5573 26.2461 -15.24
    endloop
  endfacet
  facet normal 0 0 1
    outer loop
      vertex 65.0875 25.4 -15.24
      vertex 69.5573 26.2461 -15.24
      vertex 68.579 26.7839 -15.24
    endloop
  endfacet
  facet normal 0 0 1
    outer loop
      vertex 65.0875 25.4 -15.24
      vertex 68.579 26.7839 -15.24
      vertex 67.6758 27.4401 -15.24
    endloop
  endfacet
  facet normal 0 0 1
    outer loop
      vertex 65.0875 25.4 -15.24
      vertex 67.6758 27.4401 -15.24
      vertex 66.862 28.2044 -15.24
    endloop
  endfacet
  facet normal 0 0 1
    outer loop
      vertex 65.0875 25.4 -15.24
      vertex 66.1503 29.0646 -15.24
      vertex 65.5521 30.0072 -15.24
    endloop
  endfacet
  facet normal 0 0 1
    outer loop
      vertex 65.0875 25.4 -15.24
      vertex 66.862 28.2044 -15.24
      vertex 66.1503 29.0646 -15.24
    endloop
  endfacet
  facet normal 0 0 1
    outer loop
      vertex 71.6767 25.5575 -15.24
      vertex 65.0875 25.4 -15.24
      vertex 65.0875 3.175 -15.24
    endloop
  endfacet
  facet normal 0 0 1
    outer loop
      vertex 75.0083 25.5575 -15.24
      vertex 65.0875 3.175 -15.24
      vertex 91.1225 3.175 -15.24
    endloop
  endfacet
  facet normal 0 1 0
    outer loop
      vertex 91.1225 3.175 5.08
      vertex 66.9925 3.175 1.905
      vertex 66.9925 3.175 5.08
    endloop
  endfacet
  facet normal 0 1 0
    outer loop
      vertex 91.1225 3.175 5.08
      vertex 66.9625 3.175 1.42748
      vertex 66.9925 3.175 1.905
    endloop
  endfacet
  facet normal 0 1 0
    outer loop
      vertex 91.1225 3.175 5.08
      vertex 66.8728 3.175 0.957491
      vertex 66.9625 3.175 1.42748
    endloop
  endfacet
  facet normal 0 1 0
    outer loop
      vertex 91.1225 3.175 5.08
      vertex 66.7249 3.175 0.502445
      vertex 66.8728 3.175 0.957491
    endloop
  endfacet
  facet normal 0 1 -0
    outer loop
      vertex 91.1225 3.175 -15.24
      vertex 66.7249 3.175 0.502445
      vertex 91.1225 3.175 5.08
    endloop
  endfacet
  facet normal 0 1 0
    outer loop
      vertex 66.7249 3.175 0.502445
      vertex 91.1225 3.175 -15.24
      vertex 66.5212 3.175 0.0695181
    endloop
  endfacet
  facet normal 0 1 0
    outer loop
      vertex 66.5212 3.175 0.0695181
      vertex 91.1225 3.175 -15.24
      vertex 66.2649 3.175 -0.334462
    endloop
  endfacet
  facet normal -0 1 0
    outer loop
      vertex 65.0875 3.175 -15.24
      vertex 66.2649 3.175 -0.334462
      vertex 91.1225 3.175 -15.24
    endloop
  endfacet
  facet normal 0 1 0
    outer loop
      vertex 66.2649 3.175 -0.334462
      vertex 65.0875 3.175 -15.24
      vertex 65.9599 3.175 -0.703125
    endloop
  endfacet
  facet normal 0 1 0
    outer loop
      vertex 65.9599 3.175 -0.703125
      vertex 65.0875 3.175 -15.24
      vertex 65.6111 3.175 -1.03066
    endloop
  endfacet
  facet normal 0 1 0
    outer loop
      vertex 65.6111 3.175 -1.03066
      vertex 65.0875 3.175 -15.24
      vertex 65.224 3.175 -1.31189
    endloop
  endfacet
  facet normal 0 1 0
    outer loop
      vertex 65.224 3.175 -1.31189
      vertex 65.0875 3.175 -15.24
      vertex 64.8047 3.175 -1.54239
    endloop
  endfacet
  facet normal 0 1 0
    outer loop
      vertex 63.4217 3.175 -1.89748
      vertex 65.0875 3.175 -15.24
      vertex 62.9433 3.175 -1.89748
    endloop
  endfacet
  facet normal 0 1 0
    outer loop
      vertex 63.8964 3.175 -1.83751
      vertex 65.0875 3.175 -15.24
      vertex 63.4217 3.175 -1.89748
    endloop
  endfacet
  facet normal 0 1 0
    outer loop
      vertex 64.8047 3.175 -1.54239
      vertex 65.0875 3.175 -15.24
      vertex 64.3599 3.175 -1.71853
    endloop
  endfacet
  facet normal 0 1 0
    outer loop
      vertex 64.3599 3.175 -1.71853
      vertex 65.0875 3.175 -15.24
      vertex 63.8964 3.175 -1.83751
    endloop
  endfacet
  facet normal 0 1 -0
    outer loop
      vertex 59.3725 3.175 1.905
      vertex 55.5625 3.175 5.08
      vertex 59.3725 3.175 5.08
    endloop
  endfacet
  facet normal 0 1 0
    outer loop
      vertex 55.5625 3.175 0
      vertex 59.3725 3.175 1.905
      vertex 59.4025 3.175 1.42748
    endloop
  endfacet
  facet normal 0 1 0
    outer loop
      vertex 55.5625 3.175 0
      vertex 59.4025 3.175 1.42748
      vertex 59.4922 3.175 0.957491
    endloop
  endfacet
  facet normal 0 1 0
    outer loop
      vertex 55.5625 3.175 0
      vertex 59.4922 3.175 0.957491
      vertex 59.6401 3.175 0.502445
    endloop
  endfacet
  facet normal 0 1 0
    outer loop
      vertex 55.5625 3.175 0
      vertex 59.6401 3.175 0.502445
      vertex 59.8438 3.175 0.0695181
    endloop
  endfacet
  facet normal 0 1 0
    outer loop
      vertex 59.3725 3.175 1.905
      vertex 55.5625 3.175 0
      vertex 55.5625 3.175 5.08
    endloop
  endfacet
  facet normal 0 1 0
    outer loop
      vertex 60.1001 3.175 -0.334462
      vertex 55.5625 3.175 0
      vertex 59.8438 3.175 0.0695181
    endloop
  endfacet
  facet normal 0 1 0
    outer loop
      vertex 60.4051 3.175 -0.703125
      vertex 55.5625 3.175 0
      vertex 60.1001 3.175 -0.334462
    endloop
  endfacet
  facet normal 0 1 0
    outer loop
      vertex 60.7539 3.175 -1.03066
      vertex 55.5625 3.175 0
      vertex 60.4051 3.175 -0.703125
    endloop
  endfacet
  facet normal 0 1 0
    outer loop
      vertex 61.141 3.175 -1.31189
      vertex 55.5625 3.175 0
      vertex 60.7539 3.175 -1.03066
    endloop
  endfacet
  facet normal 0 1 0
    outer loop
      vertex 55.5625 3.175 -15.24
      vertex 61.141 3.175 -1.31189
      vertex 61.5603 3.175 -1.54239
    endloop
  endfacet
  facet normal 0 1 0
    outer loop
      vertex 55.5625 3.175 -15.24
      vertex 61.5603 3.175 -1.54239
      vertex 62.0051 3.175 -1.71853
    endloop
  endfacet
  facet normal 0 1 0
    outer loop
      vertex 65.0875 3.175 -15.24
      vertex 62.4686 3.175 -1.83751
      vertex 62.9433 3.175 -1.89748
    endloop
  endfacet
  facet normal 0 1 0
    outer loop
      vertex 65.0875 3.175 -15.24
      vertex 62.0051 3.175 -1.71853
      vertex 62.4686 3.175 -1.83751
    endloop
  endfacet
  facet normal 0 1 0
    outer loop
      vertex 55.5625 3.175 -15.24
      vertex 62.0051 3.175 -1.71853
      vertex 65.0875 3.175 -15.24
    endloop
  endfacet
  facet normal 0 1 0
    outer loop
      vertex 61.141 3.175 -1.31189
      vertex 55.5625 3.175 -15.24
      vertex 55.5625 3.175 0
    endloop
  endfacet
  facet normal 1 -0 0
    outer loop
      vertex 59.3725 0 5.08
      vertex 59.3725 3.175 1.905
      vertex 59.3725 3.175 5.08
    endloop
  endfacet
  facet normal 1 0 0
    outer loop
      vertex 59.3725 3.175 1.905
      vertex 59.3725 0 5.08
      vertex 59.3725 0 1.905
    endloop
  endfacet
  facet normal -1 0 0
    outer loop
      vertex 66.9925 0 1.905
      vertex 66.9925 3.175 5.08
      vertex 66.9925 3.175 1.905
    endloop
  endfacet
  facet normal -1 -0 0
    outer loop
      vertex 66.9925 3.175 5.08
      vertex 66.9925 0 1.905
      vertex 66.9925 0 5.08
    endloop
  endfacet
  facet normal -0.844331 0 0.535822
    outer loop
      vertex 66.2649 0 -0.334462
      vertex 66.5212 3.175 0.0695181
      vertex 66.2649 3.175 -0.334462
    endloop
  endfacet
  facet normal -0.844331 0 0.535822
    outer loop
      vertex 66.5212 3.175 0.0695181
      vertex 66.2649 0 -0.334462
      vertex 66.5212 0 0.0695181
    endloop
  endfacet
  facet normal -0.982288 0 0.187377
    outer loop
      vertex 66.8728 0 0.957491
      vertex 66.9625 3.175 1.42748
      vertex 66.8728 3.175 0.957491
    endloop
  endfacet
  facet normal -0.982288 0 0.187377
    outer loop
      vertex 66.9625 3.175 1.42748
      vertex 66.8728 0 0.957491
      vertex 66.9625 0 1.42748
    endloop
  endfacet
  facet normal -0.248689 0 0.968583
    outer loop
      vertex 63.8964 3.175 -1.83751
      vertex 64.3599 0 -1.71853
      vertex 64.3599 3.175 -1.71853
    endloop
  endfacet
  facet normal -0.248689 0 0.968583
    outer loop
      vertex 64.3599 0 -1.71853
      vertex 63.8964 3.175 -1.83751
      vertex 63.8964 0 -1.83751
    endloop
  endfacet
  facet normal -0.998027 0 0.0627937
    outer loop
      vertex 66.9625 0 1.42748
      vertex 66.9925 3.175 1.905
      vertex 66.9625 3.175 1.42748
    endloop
  endfacet
  facet normal -0.998027 0 0.0627937
    outer loop
      vertex 66.9925 3.175 1.905
      vertex 66.9625 0 1.42748
      vertex 66.9925 0 1.905
    endloop
  endfacet
  facet normal -0.587785 0 0.809017
    outer loop
      vertex 65.224 3.175 -1.31189
      vertex 65.6111 0 -1.03066
      vertex 65.6111 3.175 -1.03066
    endloop
  endfacet
  facet normal -0.587785 0 0.809017
    outer loop
      vertex 65.6111 0 -1.03066
      vertex 65.224 3.175 -1.31189
      vertex 65.224 0 -1.31189
    endloop
  endfacet
  facet normal 0.587785 0 0.809017
    outer loop
      vertex 60.7539 3.175 -1.03066
      vertex 61.141 0 -1.31189
      vertex 61.141 3.175 -1.31189
    endloop
  endfacet
  facet normal 0.587785 0 0.809017
    outer loop
      vertex 61.141 0 -1.31189
      vertex 60.7539 3.175 -1.03066
      vertex 60.7539 0 -1.03066
    endloop
  endfacet
  facet normal 0.844331 -0 0.535822
    outer loop
      vertex 59.8438 0 0.0695181
      vertex 60.1001 3.175 -0.334462
      vertex 59.8438 3.175 0.0695181
    endloop
  endfacet
  facet normal 0.844331 0 0.535822
    outer loop
      vertex 60.1001 3.175 -0.334462
      vertex 59.8438 0 0.0695181
      vertex 60.1001 0 -0.334462
    endloop
  endfacet
  facet normal 0.904827 -0 0.425779
    outer loop
      vertex 59.6401 0 0.502445
      vertex 59.8438 3.175 0.0695181
      vertex 59.6401 3.175 0.502445
    endloop
  endfacet
  facet normal 0.904827 0 0.425779
    outer loop
      vertex 59.8438 3.175 0.0695181
      vertex 59.6401 0 0.502445
      vertex 59.8438 0 0.0695181
    endloop
  endfacet
  facet normal 0.770513 -0 0.637425
    outer loop
      vertex 60.1001 0 -0.334462
      vertex 60.4051 3.175 -0.703125
      vertex 60.1001 3.175 -0.334462
    endloop
  endfacet
  facet normal 0.770513 0 0.637425
    outer loop
      vertex 60.4051 3.175 -0.703125
      vertex 60.1001 0 -0.334462
      vertex 60.4051 0 -0.703125
    endloop
  endfacet
  facet normal -0.125332 0 0.992115
    outer loop
      vertex 63.4217 3.175 -1.89748
      vertex 63.8964 0 -1.83751
      vertex 63.8964 3.175 -1.83751
    endloop
  endfacet
  facet normal -0.125332 0 0.992115
    outer loop
      vertex 63.8964 0 -1.83751
      vertex 63.4217 3.175 -1.89748
      vertex 63.4217 0 -1.89748
    endloop
  endfacet
  facet normal 0.998027 -0 0.0627937
    outer loop
      vertex 59.3725 0 1.905
      vertex 59.4025 3.175 1.42748
      vertex 59.3725 3.175 1.905
    endloop
  endfacet
  facet normal 0.998027 0 0.0627937
    outer loop
      vertex 59.4025 3.175 1.42748
      vertex 59.3725 0 1.905
      vertex 59.4025 0 1.42748
    endloop
  endfacet
  facet normal -0.904827 0 0.425779
    outer loop
      vertex 66.5212 0 0.0695181
      vertex 66.7249 3.175 0.502445
      vertex 66.5212 3.175 0.0695181
    endloop
  endfacet
  facet normal -0.904827 0 0.425779
    outer loop
      vertex 66.7249 3.175 0.502445
      vertex 66.5212 0 0.0695181
      vertex 66.7249 0 0.502445
    endloop
  endfacet
  facet normal -0.770513 0 0.637425
    outer loop
      vertex 65.9599 0 -0.703125
      vertex 66.2649 3.175 -0.334462
      vertex 65.9599 3.175 -0.703125
    endloop
  endfacet
  facet normal -0.770513 0 0.637425
    outer loop
      vertex 66.2649 3.175 -0.334462
      vertex 65.9599 0 -0.703125
      vertex 66.2649 0 -0.334462
    endloop
  endfacet
  facet normal -0.684547 0 0.728969
    outer loop
      vertex 65.6111 3.175 -1.03066
      vertex 65.9599 0 -0.703125
      vertex 65.9599 3.175 -0.703125
    endloop
  endfacet
  facet normal -0.684547 0 0.728969
    outer loop
      vertex 65.9599 0 -0.703125
      vertex 65.6111 3.175 -1.03066
      vertex 65.6111 0 -1.03066
    endloop
  endfacet
  facet normal 0.248691 0 0.968583
    outer loop
      vertex 62.0051 3.175 -1.71853
      vertex 62.4686 0 -1.83751
      vertex 62.4686 3.175 -1.83751
    endloop
  endfacet
  facet normal 0.248691 0 0.968583
    outer loop
      vertex 62.4686 0 -1.83751
      vertex 62.0051 3.175 -1.71853
      vertex 62.0051 0 -1.71853
    endloop
  endfacet
  facet normal 0.684547 0 0.728969
    outer loop
      vertex 60.4051 3.175 -0.703125
      vertex 60.7539 0 -1.03066
      vertex 60.7539 3.175 -1.03066
    endloop
  endfacet
  facet normal 0.684547 0 0.728969
    outer loop
      vertex 60.7539 0 -1.03066
      vertex 60.4051 3.175 -0.703125
      vertex 60.4051 0 -0.703125
    endloop
  endfacet
  facet normal 0.951056 -0 0.309018
    outer loop
      vertex 59.4922 0 0.957491
      vertex 59.6401 3.175 0.502445
      vertex 59.4922 3.175 0.957491
    endloop
  endfacet
  facet normal 0.951056 0 0.309018
    outer loop
      vertex 59.6401 3.175 0.502445
      vertex 59.4922 0 0.957491
      vertex 59.6401 0 0.502445
    endloop
  endfacet
  facet normal 0.982287 -0 0.187385
    outer loop
      vertex 59.4025 0 1.42748
      vertex 59.4922 3.175 0.957491
      vertex 59.4025 3.175 1.42748
    endloop
  endfacet
  facet normal 0.982287 0 0.187385
    outer loop
      vertex 59.4922 3.175 0.957491
      vertex 59.4025 0 1.42748
      vertex 59.4922 0 0.957491
    endloop
  endfacet
  facet normal -0.368126 0 0.929776
    outer loop
      vertex 64.3599 3.175 -1.71853
      vertex 64.8047 0 -1.54239
      vertex 64.8047 3.175 -1.54239
    endloop
  endfacet
  facet normal -0.368126 0 0.929776
    outer loop
      vertex 64.8047 0 -1.54239
      vertex 64.3599 3.175 -1.71853
      vertex 64.3599 0 -1.71853
    endloop
  endfacet
  facet normal -0.481754 0 0.876306
    outer loop
      vertex 64.8047 3.175 -1.54239
      vertex 65.224 0 -1.31189
      vertex 65.224 3.175 -1.31189
    endloop
  endfacet
  facet normal -0.481754 0 0.876306
    outer loop
      vertex 65.224 0 -1.31189
      vertex 64.8047 3.175 -1.54239
      vertex 64.8047 0 -1.54239
    endloop
  endfacet
  facet normal -0.951054 0 0.309025
    outer loop
      vertex 66.7249 0 0.502445
      vertex 66.8728 3.175 0.957491
      vertex 66.7249 3.175 0.502445
    endloop
  endfacet
  facet normal -0.951054 0 0.309025
    outer loop
      vertex 66.8728 3.175 0.957491
      vertex 66.7249 0 0.502445
      vertex 66.8728 0 0.957491
    endloop
  endfacet
  facet normal 0.368123 0 0.929777
    outer loop
      vertex 61.5603 3.175 -1.54239
      vertex 62.0051 0 -1.71853
      vertex 62.0051 3.175 -1.71853
    endloop
  endfacet
  facet normal 0.368123 0 0.929777
    outer loop
      vertex 62.0051 0 -1.71853
      vertex 61.5603 3.175 -1.54239
      vertex 61.5603 0 -1.54239
    endloop
  endfacet
  facet normal 0.481754 0 0.876306
    outer loop
      vertex 61.141 3.175 -1.31189
      vertex 61.5603 0 -1.54239
      vertex 61.5603 3.175 -1.54239
    endloop
  endfacet
  facet normal 0.481754 0 0.876306
    outer loop
      vertex 61.5603 0 -1.54239
      vertex 61.141 3.175 -1.31189
      vertex 61.141 0 -1.31189
    endloop
  endfacet
  facet normal 0.125332 0 0.992115
    outer loop
      vertex 62.4686 3.175 -1.83751
      vertex 62.9433 0 -1.89748
      vertex 62.9433 3.175 -1.89748
    endloop
  endfacet
  facet normal 0.125332 0 0.992115
    outer loop
      vertex 62.9433 0 -1.89748
      vertex 62.4686 3.175 -1.83751
      vertex 62.4686 0 -1.83751
    endloop
  endfacet
  facet normal -0 0 1
    outer loop
      vertex 62.9433 3.175 -1.89748
      vertex 63.4217 0 -1.89748
      vertex 63.4217 3.175 -1.89748
    endloop
  endfacet
  facet normal 0 0 1
    outer loop
      vertex 63.4217 0 -1.89748
      vertex 62.9433 3.175 -1.89748
      vertex 62.9433 0 -1.89748
    endloop
  endfacet
  facet normal -0.998027 -0.0627893 0
    outer loop
      vertex 82.2325 34.29 -18.415
      vertex 82.1624 35.4042 -15.24
      vertex 82.1624 35.4042 -18.415
    endloop
  endfacet
  facet normal -0.998027 -0.0627893 0
    outer loop
      vertex 82.1624 35.4042 -15.24
      vertex 82.2325 34.29 -18.415
      vertex 82.2325 34.29 -15.24
    endloop
  endfacet
  facet normal 0.998027 -0.0627893 0
    outer loop
      vertex 64.4525 34.29 -15.24
      vertex 64.5226 35.4042 -18.415
      vertex 64.5226 35.4042 -15.24
    endloop
  endfacet
  facet normal 0.998027 -0.0627893 0
    outer loop
      vertex 64.5226 35.4042 -18.415
      vertex 64.4525 34.29 -15.24
      vertex 64.4525 34.29 -18.415
    endloop
  endfacet
  facet normal 0 -1 0
    outer loop
      vertex 72.7843 43.1625 -18.415
      vertex 73.9007 43.1625 -15.24
      vertex 72.7843 43.1625 -15.24
    endloop
  endfacet
  facet normal 0 -1 -0
    outer loop
      vertex 73.9007 43.1625 -15.24
      vertex 72.7843 43.1625 -18.415
      vertex 73.9007 43.1625 -18.415
    endloop
  endfacet
  facet normal 0 1 -0
    outer loop
      vertex 73.9007 25.4175 -18.415
      vertex 72.7843 25.4175 -15.24
      vertex 73.9007 25.4175 -15.24
    endloop
  endfacet
  facet normal 0 1 0
    outer loop
      vertex 72.7843 25.4175 -15.24
      vertex 73.9007 25.4175 -18.415
      vertex 72.7843 25.4175 -18.415
    endloop
  endfacet
  facet normal -0.770512 0.637425 0
    outer loop
      vertex 79.823 28.2044 -18.415
      vertex 80.5347 29.0646 -15.24
      vertex 80.5347 29.0646 -18.415
    endloop
  endfacet
  facet normal -0.770512 0.637425 0
    outer loop
      vertex 80.5347 29.0646 -15.24
      vertex 79.823 28.2044 -18.415
      vertex 79.823 28.2044 -15.24
    endloop
  endfacet
  facet normal -0.684548 -0.728968 0
    outer loop
      vertex 79.0092 41.1399 -18.415
      vertex 79.823 40.3756 -15.24
      vertex 79.0092 41.1399 -15.24
    endloop
  endfacet
  facet normal -0.684548 -0.728968 -0
    outer loop
      vertex 79.823 40.3756 -15.24
      vertex 79.0092 41.1399 -18.415
      vertex 79.823 40.3756 -18.415
    endloop
  endfacet
  facet normal 0.684548 -0.728968 0
    outer loop
      vertex 66.862 40.3756 -18.415
      vertex 67.6758 41.1399 -15.24
      vertex 66.862 40.3756 -15.24
    endloop
  endfacet
  facet normal 0.684548 -0.728968 0
    outer loop
      vertex 67.6758 41.1399 -15.24
      vertex 66.862 40.3756 -18.415
      vertex 67.6758 41.1399 -18.415
    endloop
  endfacet
  facet normal 0.368125 -0.929776 0
    outer loop
      vertex 69.5573 42.3339 -18.415
      vertex 70.5953 42.7449 -15.24
      vertex 69.5573 42.3339 -15.24
    endloop
  endfacet
  facet normal 0.368125 -0.929776 0
    outer loop
      vertex 70.5953 42.7449 -15.24
      vertex 69.5573 42.3339 -18.415
      vertex 70.5953 42.7449 -18.415
    endloop
  endfacet
  facet normal -0.904827 -0.42578 0
    outer loop
      vertex 81.6082 37.5626 -18.415
      vertex 81.1329 38.5728 -15.24
      vertex 81.1329 38.5728 -18.415
    endloop
  endfacet
  facet normal -0.904827 -0.42578 0
    outer loop
      vertex 81.1329 38.5728 -15.24
      vertex 81.6082 37.5626 -18.415
      vertex 81.6082 37.5626 -15.24
    endloop
  endfacet
  facet normal -0.982287 -0.187383 0
    outer loop
      vertex 82.1624 35.4042 -18.415
      vertex 81.9532 36.5009 -15.24
      vertex 81.9532 36.5009 -18.415
    endloop
  endfacet
  facet normal -0.982287 -0.187383 0
    outer loop
      vertex 81.9532 36.5009 -15.24
      vertex 82.1624 35.4042 -18.415
      vertex 82.1624 35.4042 -15.24
    endloop
  endfacet
  facet normal -0.368125 -0.929776 0
    outer loop
      vertex 76.0897 42.7449 -18.415
      vertex 77.1277 42.3339 -15.24
      vertex 76.0897 42.7449 -15.24
    endloop
  endfacet
  facet normal -0.368125 -0.929776 -0
    outer loop
      vertex 77.1277 42.3339 -15.24
      vertex 76.0897 42.7449 -18.415
      vertex 77.1277 42.3339 -18.415
    endloop
  endfacet
  facet normal -0.248689 -0.968583 0
    outer loop
      vertex 75.0083 43.0225 -18.415
      vertex 76.0897 42.7449 -15.24
      vertex 75.0083 43.0225 -15.24
    endloop
  endfacet
  facet normal -0.248689 -0.968583 -0
    outer loop
      vertex 76.0897 42.7449 -15.24
      vertex 75.0083 43.0225 -18.415
      vertex 76.0897 42.7449 -18.415
    endloop
  endfacet
  facet normal -0.587785 -0.809017 0
    outer loop
      vertex 78.106 41.7961 -18.415
      vertex 79.0092 41.1399 -15.24
      vertex 78.106 41.7961 -15.24
    endloop
  endfacet
  facet normal -0.587785 -0.809017 -0
    outer loop
      vertex 79.0092 41.1399 -15.24
      vertex 78.106 41.7961 -18.415
      vertex 79.0092 41.1399 -18.415
    endloop
  endfacet
  facet normal 0.904829 -0.425775 0
    outer loop
      vertex 65.0768 37.5626 -15.24
      vertex 65.5521 38.5728 -18.415
      vertex 65.5521 38.5728 -15.24
    endloop
  endfacet
  facet normal 0.904829 -0.425775 0
    outer loop
      vertex 65.5521 38.5728 -18.415
      vertex 65.0768 37.5626 -15.24
      vertex 65.0768 37.5626 -18.415
    endloop
  endfacet
  facet normal 0.770513 -0.637424 0
    outer loop
      vertex 66.1503 39.5154 -15.24
      vertex 66.862 40.3756 -18.415
      vertex 66.862 40.3756 -15.24
    endloop
  endfacet
  facet normal 0.770513 -0.637424 0
    outer loop
      vertex 66.862 40.3756 -18.415
      vertex 66.1503 39.5154 -15.24
      vertex 66.1503 39.5154 -18.415
    endloop
  endfacet
  facet normal 0.951056 -0.30902 0
    outer loop
      vertex 64.7318 36.5009 -15.24
      vertex 65.0768 37.5626 -18.415
      vertex 65.0768 37.5626 -15.24
    endloop
  endfacet
  facet normal 0.951056 -0.30902 0
    outer loop
      vertex 65.0768 37.5626 -18.415
      vertex 64.7318 36.5009 -15.24
      vertex 64.7318 36.5009 -18.415
    endloop
  endfacet
  facet normal 0.481756 -0.876305 0
    outer loop
      vertex 68.579 41.7961 -18.415
      vertex 69.5573 42.3339 -15.24
      vertex 68.579 41.7961 -15.24
    endloop
  endfacet
  facet normal 0.481756 -0.876305 0
    outer loop
      vertex 69.5573 42.3339 -15.24
      vertex 68.579 41.7961 -18.415
      vertex 69.5573 42.3339 -18.415
    endloop
  endfacet
  facet normal 0.125332 -0.992115 0
    outer loop
      vertex 71.6767 43.0225 -18.415
      vertex 72.7843 43.1625 -15.24
      vertex 71.6767 43.0225 -15.24
    endloop
  endfacet
  facet normal 0.125332 -0.992115 0
    outer loop
      vertex 72.7843 43.1625 -15.24
      vertex 71.6767 43.0225 -18.415
      vertex 72.7843 43.1625 -18.415
    endloop
  endfacet
  facet normal -0.982287 0.187383 0
    outer loop
      vertex 81.9532 32.0791 -18.415
      vertex 82.1624 33.1758 -15.24
      vertex 82.1624 33.1758 -18.415
    endloop
  endfacet
  facet normal -0.982287 0.187383 0
    outer loop
      vertex 82.1624 33.1758 -15.24
      vertex 81.9532 32.0791 -18.415
      vertex 81.9532 32.0791 -15.24
    endloop
  endfacet
  facet normal -0.125333 0.992115 0
    outer loop
      vertex 75.0083 25.5575 -18.415
      vertex 73.9007 25.4175 -15.24
      vertex 75.0083 25.5575 -15.24
    endloop
  endfacet
  facet normal -0.125333 0.992115 0
    outer loop
      vertex 73.9007 25.4175 -15.24
      vertex 75.0083 25.5575 -18.415
      vertex 73.9007 25.4175 -18.415
    endloop
  endfacet
  facet normal -0.951058 -0.309013 0
    outer loop
      vertex 81.9532 36.5009 -18.415
      vertex 81.6082 37.5626 -15.24
      vertex 81.6082 37.5626 -18.415
    endloop
  endfacet
  facet normal -0.951058 -0.309013 0
    outer loop
      vertex 81.6082 37.5626 -15.24
      vertex 81.9532 36.5009 -18.415
      vertex 81.9532 36.5009 -15.24
    endloop
  endfacet
  facet normal -0.770513 -0.637424 0
    outer loop
      vertex 80.5347 39.5154 -18.415
      vertex 79.823 40.3756 -15.24
      vertex 79.823 40.3756 -18.415
    endloop
  endfacet
  facet normal -0.770513 -0.637424 0
    outer loop
      vertex 79.823 40.3756 -15.24
      vertex 80.5347 39.5154 -18.415
      vertex 80.5347 39.5154 -15.24
    endloop
  endfacet
  facet normal -0.844327 -0.535828 0
    outer loop
      vertex 81.1329 38.5728 -18.415
      vertex 80.5347 39.5154 -15.24
      vertex 80.5347 39.5154 -18.415
    endloop
  endfacet
  facet normal -0.844327 -0.535828 0
    outer loop
      vertex 80.5347 39.5154 -15.24
      vertex 81.1329 38.5728 -18.415
      vertex 81.1329 38.5728 -15.24
    endloop
  endfacet
  facet normal -0.125333 -0.992115 0
    outer loop
      vertex 73.9007 43.1625 -18.415
      vertex 75.0083 43.0225 -15.24
      vertex 73.9007 43.1625 -15.24
    endloop
  endfacet
  facet normal -0.125333 -0.992115 -0
    outer loop
      vertex 75.0083 43.0225 -15.24
      vertex 73.9007 43.1625 -18.415
      vertex 75.0083 43.0225 -18.415
    endloop
  endfacet
  facet normal -0.481753 -0.876307 0
    outer loop
      vertex 77.1277 42.3339 -18.415
      vertex 78.106 41.7961 -15.24
      vertex 77.1277 42.3339 -15.24
    endloop
  endfacet
  facet normal -0.481753 -0.876307 -0
    outer loop
      vertex 78.106 41.7961 -15.24
      vertex 77.1277 42.3339 -18.415
      vertex 78.106 41.7961 -18.415
    endloop
  endfacet
  facet normal 0.844327 -0.535828 0
    outer loop
      vertex 65.5521 38.5728 -15.24
      vertex 66.1503 39.5154 -18.415
      vertex 66.1503 39.5154 -15.24
    endloop
  endfacet
  facet normal 0.844327 -0.535828 0
    outer loop
      vertex 66.1503 39.5154 -18.415
      vertex 65.5521 38.5728 -15.24
      vertex 65.5521 38.5728 -18.415
    endloop
  endfacet
  facet normal 0.982287 -0.187383 0
    outer loop
      vertex 64.5226 35.4042 -15.24
      vertex 64.7318 36.5009 -18.415
      vertex 64.7318 36.5009 -15.24
    endloop
  endfacet
  facet normal 0.982287 -0.187383 0
    outer loop
      vertex 64.7318 36.5009 -18.415
      vertex 64.5226 35.4042 -15.24
      vertex 64.5226 35.4042 -18.415
    endloop
  endfacet
  facet normal 0.587782 -0.809019 0
    outer loop
      vertex 67.6758 41.1399 -18.415
      vertex 68.579 41.7961 -15.24
      vertex 67.6758 41.1399 -15.24
    endloop
  endfacet
  facet normal 0.587782 -0.809019 0
    outer loop
      vertex 68.579 41.7961 -15.24
      vertex 67.6758 41.1399 -18.415
      vertex 68.579 41.7961 -18.415
    endloop
  endfacet
  facet normal 0.248689 -0.968583 0
    outer loop
      vertex 70.5953 42.7449 -18.415
      vertex 71.6767 43.0225 -15.24
      vertex 70.5953 42.7449 -15.24
    endloop
  endfacet
  facet normal 0.248689 -0.968583 0
    outer loop
      vertex 71.6767 43.0225 -15.24
      vertex 70.5953 42.7449 -18.415
      vertex 71.6767 43.0225 -18.415
    endloop
  endfacet
  facet normal -0.998027 0.0627893 0
    outer loop
      vertex 82.1624 33.1758 -18.415
      vertex 82.2325 34.29 -15.24
      vertex 82.2325 34.29 -18.415
    endloop
  endfacet
  facet normal -0.998027 0.0627893 0
    outer loop
      vertex 82.2325 34.29 -15.24
      vertex 82.1624 33.1758 -18.415
      vertex 82.1624 33.1758 -15.24
    endloop
  endfacet
  facet normal -0.951058 0.309012 0
    outer loop
      vertex 81.6082 31.0174 -18.415
      vertex 81.9532 32.0791 -15.24
      vertex 81.9532 32.0791 -18.415
    endloop
  endfacet
  facet normal -0.951058 0.309012 0
    outer loop
      vertex 81.9532 32.0791 -15.24
      vertex 81.6082 31.0174 -18.415
      vertex 81.6082 31.0174 -15.24
    endloop
  endfacet
  facet normal 0.770512 0.637425 0
    outer loop
      vertex 66.862 28.2044 -15.24
      vertex 66.1503 29.0646 -18.415
      vertex 66.1503 29.0646 -15.24
    endloop
  endfacet
  facet normal 0.770512 0.637425 0
    outer loop
      vertex 66.1503 29.0646 -18.415
      vertex 66.862 28.2044 -15.24
      vertex 66.862 28.2044 -18.415
    endloop
  endfacet
  facet normal -0.587785 0.809017 0
    outer loop
      vertex 79.0092 27.4401 -18.415
      vertex 78.106 26.7839 -15.24
      vertex 79.0092 27.4401 -15.24
    endloop
  endfacet
  facet normal -0.587785 0.809017 0
    outer loop
      vertex 78.106 26.7839 -15.24
      vertex 79.0092 27.4401 -18.415
      vertex 78.106 26.7839 -18.415
    endloop
  endfacet
  facet normal 0.951056 0.309019 0
    outer loop
      vertex 65.0768 31.0174 -15.24
      vertex 64.7318 32.0791 -18.415
      vertex 64.7318 32.0791 -15.24
    endloop
  endfacet
  facet normal 0.951056 0.309019 0
    outer loop
      vertex 64.7318 32.0791 -18.415
      vertex 65.0768 31.0174 -15.24
      vertex 65.0768 31.0174 -18.415
    endloop
  endfacet
  facet normal -0.68455 0.728966 0
    outer loop
      vertex 79.823 28.2044 -18.415
      vertex 79.0092 27.4401 -15.24
      vertex 79.823 28.2044 -15.24
    endloop
  endfacet
  facet normal -0.68455 0.728966 0
    outer loop
      vertex 79.0092 27.4401 -15.24
      vertex 79.823 28.2044 -18.415
      vertex 79.0092 27.4401 -18.415
    endloop
  endfacet
  facet normal -0.481753 0.876307 0
    outer loop
      vertex 78.106 26.7839 -18.415
      vertex 77.1277 26.2461 -15.24
      vertex 78.106 26.7839 -15.24
    endloop
  endfacet
  facet normal -0.481753 0.876307 0
    outer loop
      vertex 77.1277 26.2461 -15.24
      vertex 78.106 26.7839 -18.415
      vertex 77.1277 26.2461 -18.415
    endloop
  endfacet
  facet normal -0.368125 0.929776 0
    outer loop
      vertex 77.1277 26.2461 -18.415
      vertex 76.0897 25.8351 -15.24
      vertex 77.1277 26.2461 -15.24
    endloop
  endfacet
  facet normal -0.368125 0.929776 0
    outer loop
      vertex 76.0897 25.8351 -15.24
      vertex 77.1277 26.2461 -18.415
      vertex 76.0897 25.8351 -18.415
    endloop
  endfacet
  facet normal -0.248689 0.968583 0
    outer loop
      vertex 76.0897 25.8351 -18.415
      vertex 75.0083 25.5575 -15.24
      vertex 76.0897 25.8351 -15.24
    endloop
  endfacet
  facet normal -0.248689 0.968583 0
    outer loop
      vertex 75.0083 25.5575 -15.24
      vertex 76.0897 25.8351 -18.415
      vertex 75.0083 25.5575 -18.415
    endloop
  endfacet
  facet normal -0.904826 0.425782 0
    outer loop
      vertex 81.1329 30.0072 -18.415
      vertex 81.6082 31.0174 -15.24
      vertex 81.6082 31.0174 -18.415
    endloop
  endfacet
  facet normal -0.904826 0.425782 0
    outer loop
      vertex 81.6082 31.0174 -15.24
      vertex 81.1329 30.0072 -18.415
      vertex 81.1329 30.0072 -15.24
    endloop
  endfacet
  facet normal -0.844328 0.535827 0
    outer loop
      vertex 80.5347 29.0646 -18.415
      vertex 81.1329 30.0072 -15.24
      vertex 81.1329 30.0072 -18.415
    endloop
  endfacet
  facet normal -0.844328 0.535827 0
    outer loop
      vertex 81.1329 30.0072 -15.24
      vertex 80.5347 29.0646 -18.415
      vertex 80.5347 29.0646 -15.24
    endloop
  endfacet
  facet normal 0.125332 0.992115 -0
    outer loop
      vertex 72.7843 25.4175 -18.415
      vertex 71.6767 25.5575 -15.24
      vertex 72.7843 25.4175 -15.24
    endloop
  endfacet
  facet normal 0.125332 0.992115 0
    outer loop
      vertex 71.6767 25.5575 -15.24
      vertex 72.7843 25.4175 -18.415
      vertex 71.6767 25.5575 -18.415
    endloop
  endfacet
  facet normal 0.368125 0.929776 -0
    outer loop
      vertex 70.5953 25.8351 -18.415
      vertex 69.5573 26.2461 -15.24
      vertex 70.5953 25.8351 -15.24
    endloop
  endfacet
  facet normal 0.368125 0.929776 0
    outer loop
      vertex 69.5573 26.2461 -15.24
      vertex 70.5953 25.8351 -18.415
      vertex 69.5573 26.2461 -18.415
    endloop
  endfacet
  facet normal 0.248689 0.968583 -0
    outer loop
      vertex 71.6767 25.5575 -18.415
      vertex 70.5953 25.8351 -15.24
      vertex 71.6767 25.5575 -15.24
    endloop
  endfacet
  facet normal 0.248689 0.968583 0
    outer loop
      vertex 70.5953 25.8351 -15.24
      vertex 71.6767 25.5575 -18.415
      vertex 70.5953 25.8351 -18.415
    endloop
  endfacet
  facet normal 0.844328 0.535827 0
    outer loop
      vertex 66.1503 29.0646 -15.24
      vertex 65.5521 30.0072 -18.415
      vertex 65.5521 30.0072 -15.24
    endloop
  endfacet
  facet normal 0.844328 0.535827 0
    outer loop
      vertex 65.5521 30.0072 -18.415
      vertex 66.1503 29.0646 -15.24
      vertex 66.1503 29.0646 -18.415
    endloop
  endfacet
  facet normal 0.904829 0.425776 0
    outer loop
      vertex 65.5521 30.0072 -15.24
      vertex 65.0768 31.0174 -18.415
      vertex 65.0768 31.0174 -15.24
    endloop
  endfacet
  facet normal 0.904829 0.425776 0
    outer loop
      vertex 65.0768 31.0174 -18.415
      vertex 65.5521 30.0072 -15.24
      vertex 65.5521 30.0072 -18.415
    endloop
  endfacet
  facet normal 0.982287 0.187383 0
    outer loop
      vertex 64.7318 32.0791 -15.24
      vertex 64.5226 33.1758 -18.415
      vertex 64.5226 33.1758 -15.24
    endloop
  endfacet
  facet normal 0.982287 0.187383 0
    outer loop
      vertex 64.5226 33.1758 -18.415
      vertex 64.7318 32.0791 -15.24
      vertex 64.7318 32.0791 -18.415
    endloop
  endfacet
  facet normal 0.998027 0.0627893 0
    outer loop
      vertex 64.5226 33.1758 -15.24
      vertex 64.4525 34.29 -18.415
      vertex 64.4525 34.29 -15.24
    endloop
  endfacet
  facet normal 0.998027 0.0627893 0
    outer loop
      vertex 64.4525 34.29 -18.415
      vertex 64.5226 33.1758 -15.24
      vertex 64.5226 33.1758 -18.415
    endloop
  endfacet
  facet normal 0.481756 0.876305 -0
    outer loop
      vertex 69.5573 26.2461 -18.415
      vertex 68.579 26.7839 -15.24
      vertex 69.5573 26.2461 -15.24
    endloop
  endfacet
  facet normal 0.481756 0.876305 0
    outer loop
      vertex 68.579 26.7839 -15.24
      vertex 69.5573 26.2461 -18.415
      vertex 68.579 26.7839 -18.415
    endloop
  endfacet
  facet normal 0.587782 0.809019 -0
    outer loop
      vertex 68.579 26.7839 -18.415
      vertex 67.6758 27.4401 -15.24
      vertex 68.579 26.7839 -15.24
    endloop
  endfacet
  facet normal 0.587782 0.809019 0
    outer loop
      vertex 67.6758 27.4401 -15.24
      vertex 68.579 26.7839 -18.415
      vertex 67.6758 27.4401 -18.415
    endloop
  endfacet
  facet normal 0.68455 0.728966 -0
    outer loop
      vertex 67.6758 27.4401 -18.415
      vertex 66.862 28.2044 -15.24
      vertex 67.6758 27.4401 -15.24
    endloop
  endfacet
  facet normal 0.68455 0.728966 0
    outer loop
      vertex 66.862 28.2044 -15.24
      vertex 67.6758 27.4401 -18.415
      vertex 66.862 28.2044 -18.415
    endloop
  endfacet
  facet normal -1 0 0
    outer loop
      vertex -25.4 11.43 7.62
      vertex -25.4 36.83 10.795
      vertex -25.4 36.83 7.62
    endloop
  endfacet
  facet normal -1 -0 0
    outer loop
      vertex -25.4 36.83 10.795
      vertex -25.4 11.43 7.62
      vertex -25.4 11.43 10.795
    endloop
  endfacet
  facet normal 0 1 -0
    outer loop
      vertex 0 36.83 7.62
      vertex -25.4 36.83 10.795
      vertex 0 36.83 10.795
    endloop
  endfacet
  facet normal 0 1 0
    outer loop
      vertex -25.4 36.83 10.795
      vertex 0 36.83 7.62
      vertex -25.4 36.83 7.62
    endloop
  endfacet
  facet normal 0 0 -1
    outer loop
      vertex -25.4 11.43 7.62
      vertex 0 36.83 7.62
      vertex 0 11.43 7.62
    endloop
  endfacet
  facet normal -0 0 -1
    outer loop
      vertex 0 36.83 7.62
      vertex -25.4 11.43 7.62
      vertex -25.4 36.83 7.62
    endloop
  endfacet
  facet normal 0 -1 0
    outer loop
      vertex -25.4 11.43 7.62
      vertex 0 11.43 10.795
      vertex -25.4 11.43 10.795
    endloop
  endfacet
  facet normal 0 -1 -0
    outer loop
      vertex 0 11.43 10.795
      vertex -25.4 11.43 7.62
      vertex 0 11.43 7.62
    endloop
  endfacet
  facet normal 0 1 -0
    outer loop
      vertex 52.3875 25.4 -18.415
      vertex 47.9425 25.4 -15.24
      vertex 52.3875 25.4 -15.24
    endloop
  endfacet
  facet normal 0 1 0
    outer loop
      vertex 47.9425 25.4 -15.24
      vertex 52.3875 25.4 -18.415
      vertex 47.9425 25.4 -18.415
    endloop
  endfacet
endsolid OpenSCAD_Model
