solid OpenSCAD_Model
  facet normal -1 0 0
    outer loop
      vertex 21.59 41.275 -18.415
      vertex 21.59 0 0
      vertex 21.59 41.275 0
    endloop
  endfacet
  facet normal -1 0 0
    outer loop
      vertex 21.59 -15.875 -18.415
      vertex 21.59 0 0
      vertex 21.59 41.275 -18.415
    endloop
  endfacet
  facet normal -1 -0 0
    outer loop
      vertex 21.59 0 0
      vertex 21.59 -15.875 -18.415
      vertex 21.59 -15.875 0
    endloop
  endfacet
  facet normal -0 0 1
    outer loop
      vertex 21.59 0 0
      vertex 24.765 -15.875 0
      vertex 24.765 0 0
    endloop
  endfacet
  facet normal 0 0 1
    outer loop
      vertex 24.765 -15.875 0
      vertex 21.59 0 0
      vertex 21.59 -15.875 0
    endloop
  endfacet
  facet normal -0 0 1
    outer loop
      vertex 43.815 0 0
      vertex 46.99 -15.875 0
      vertex 46.99 0 0
    endloop
  endfacet
  facet normal 0 0 1
    outer loop
      vertex 46.99 -15.875 0
      vertex 43.815 0 0
      vertex 43.815 -15.875 0
    endloop
  endfacet
  facet normal 0 0 -1
    outer loop
      vertex 0 41.275 0
      vertex 21.59 41.275 0
      vertex 21.59 0 0
    endloop
  endfacet
  facet normal 0 0 -1
    outer loop
      vertex 0 41.275 0
      vertex 21.59 0 0
      vertex 0 0 0
    endloop
  endfacet
  facet normal 0 0 -1
    outer loop
      vertex 21.59 41.275 0
      vertex 0 41.275 0
      vertex 15.875 57.15 0
    endloop
  endfacet
  facet normal 0 0 -1
    outer loop
      vertex 46.99 41.275 0
      vertex 51.435 0 0
      vertex 46.99 0 0
    endloop
  endfacet
  facet normal 0 0 -1
    outer loop
      vertex 51.435 0 0
      vertex 46.99 41.275 0
      vertex 51.435 57.15 0
    endloop
  endfacet
  facet normal 0 0 -1
    outer loop
      vertex 21.59 41.275 0
      vertex 51.435 57.15 0
      vertex 46.99 41.275 0
    endloop
  endfacet
  facet normal -0 0 -1
    outer loop
      vertex 51.435 57.15 0
      vertex 21.59 41.275 0
      vertex 15.875 57.15 0
    endloop
  endfacet
  facet normal 1 -0 0
    outer loop
      vertex 46.99 0 0
      vertex 46.99 41.275 -18.415
      vertex 46.99 41.275 0
    endloop
  endfacet
  facet normal 1 0 0
    outer loop
      vertex 46.99 -15.875 -18.415
      vertex 46.99 0 0
      vertex 46.99 -15.875 0
    endloop
  endfacet
  facet normal 1 0 0
    outer loop
      vertex 46.99 0 0
      vertex 46.99 -15.875 -18.415
      vertex 46.99 41.275 -18.415
    endloop
  endfacet
  facet normal 0 1 -0
    outer loop
      vertex 46.99 41.275 -18.415
      vertex 21.59 41.275 0
      vertex 46.99 41.275 0
    endloop
  endfacet
  facet normal 0 1 0
    outer loop
      vertex 21.59 41.275 0
      vertex 46.99 41.275 -18.415
      vertex 21.59 41.275 -18.415
    endloop
  endfacet
  facet normal 0 0 -1
    outer loop
      vertex 21.59 -15.875 -18.415
      vertex 46.99 41.275 -18.415
      vertex 46.99 -15.875 -18.415
    endloop
  endfacet
  facet normal -0 0 -1
    outer loop
      vertex 46.99 41.275 -18.415
      vertex 21.59 -15.875 -18.415
      vertex 21.59 41.275 -18.415
    endloop
  endfacet
  facet normal 0 -1 0
    outer loop
      vertex 21.59 -15.875 0
      vertex 24.765 -15.875 -15.24
      vertex 24.765 -15.875 0
    endloop
  endfacet
  facet normal 0 -1 -0
    outer loop
      vertex 24.765 -15.875 -15.24
      vertex 21.59 -15.875 -18.415
      vertex 43.815 -15.875 -15.24
    endloop
  endfacet
  facet normal 0 -1 0
    outer loop
      vertex 21.59 -15.875 -18.415
      vertex 24.765 -15.875 -15.24
      vertex 21.59 -15.875 0
    endloop
  endfacet
  facet normal 0 -1 0
    outer loop
      vertex 43.815 -15.875 -15.24
      vertex 46.99 -15.875 0
      vertex 43.815 -15.875 0
    endloop
  endfacet
  facet normal 0 -1 0
    outer loop
      vertex 43.815 -15.875 -15.24
      vertex 46.99 -15.875 -18.415
      vertex 46.99 -15.875 0
    endloop
  endfacet
  facet normal 0 -1 0
    outer loop
      vertex 46.99 -15.875 -18.415
      vertex 43.815 -15.875 -15.24
      vertex 21.59 -15.875 -18.415
    endloop
  endfacet
  facet normal 1 0 0
    outer loop
      vertex 24.765 3.175 13.335
      vertex 24.765 0 13.335
      vertex 24.765 3.175 3.175
    endloop
  endfacet
  facet normal 1 -0 0
    outer loop
      vertex 24.765 3.175 3.175
      vertex 24.765 38.1 -15.24
      vertex 24.765 38.1 3.175
    endloop
  endfacet
  facet normal 1 0 0
    outer loop
      vertex 24.765 0 0
      vertex 24.765 3.175 3.175
      vertex 24.765 0 13.335
    endloop
  endfacet
  facet normal 1 -0 0
    outer loop
      vertex 24.765 0 0
      vertex 24.765 38.1 -15.24
      vertex 24.765 3.175 3.175
    endloop
  endfacet
  facet normal 1 0 0
    outer loop
      vertex 24.765 -15.875 -15.24
      vertex 24.765 0 0
      vertex 24.765 -15.875 0
    endloop
  endfacet
  facet normal 1 0 0
    outer loop
      vertex 24.765 0 0
      vertex 24.765 -15.875 -15.24
      vertex 24.765 38.1 -15.24
    endloop
  endfacet
  facet normal -1 0 0
    outer loop
      vertex 43.815 38.1 -15.24
      vertex 43.815 3.175 3.175
      vertex 43.815 38.1 3.175
    endloop
  endfacet
  facet normal -1 0 0
    outer loop
      vertex 43.815 0 13.335
      vertex 43.815 3.175 3.175
      vertex 43.815 0 0
    endloop
  endfacet
  facet normal -1 0 0
    outer loop
      vertex 43.815 38.1 -15.24
      vertex 43.815 0 0
      vertex 43.815 3.175 3.175
    endloop
  endfacet
  facet normal -1 0 0
    outer loop
      vertex 43.815 -15.875 -15.24
      vertex 43.815 0 0
      vertex 43.815 38.1 -15.24
    endloop
  endfacet
  facet normal -1 -0 0
    outer loop
      vertex 43.815 0 0
      vertex 43.815 -15.875 -15.24
      vertex 43.815 -15.875 0
    endloop
  endfacet
  facet normal -1 0 0
    outer loop
      vertex 43.815 3.175 3.175
      vertex 43.815 0 13.335
      vertex 43.815 3.175 13.335
    endloop
  endfacet
  facet normal 0 -1 0
    outer loop
      vertex 24.765 38.1 -15.24
      vertex 43.815 38.1 3.175
      vertex 24.765 38.1 3.175
    endloop
  endfacet
  facet normal 0 -1 -0
    outer loop
      vertex 43.815 38.1 3.175
      vertex 24.765 38.1 -15.24
      vertex 43.815 38.1 -15.24
    endloop
  endfacet
  facet normal -0 0 1
    outer loop
      vertex 24.765 38.1 -15.24
      vertex 43.815 -15.875 -15.24
      vertex 43.815 38.1 -15.24
    endloop
  endfacet
  facet normal 0 0 1
    outer loop
      vertex 43.815 -15.875 -15.24
      vertex 24.765 38.1 -15.24
      vertex 24.765 -15.875 -15.24
    endloop
  endfacet
  facet normal -1 0 0
    outer loop
      vertex 0 41.275 0
      vertex 0 33.02 10.16
      vertex 0 41.275 13.335
    endloop
  endfacet
  facet normal -1 0 0
    outer loop
      vertex 0 0 0
      vertex 0 33.02 10.16
      vertex 0 41.275 0
    endloop
  endfacet
  facet normal -1 -0 0
    outer loop
      vertex 0 33.02 10.16
      vertex 0 0 0
      vertex 0 7.62 10.16
    endloop
  endfacet
  facet normal -1 0 0
    outer loop
      vertex 0 0 13.335
      vertex 0 7.62 10.16
      vertex 0 0 0
    endloop
  endfacet
  facet normal -1 0 0
    outer loop
      vertex 0 7.62 10.16
      vertex 0 0 13.335
      vertex 0 7.62 13.335
    endloop
  endfacet
  facet normal -1 -0 0
    outer loop
      vertex 0 41.275 13.335
      vertex 0 33.02 10.16
      vertex 0 33.02 13.335
    endloop
  endfacet
  facet normal 0 0 1
    outer loop
      vertex 0 33.02 13.335
      vertex 3.175 44.45 13.335
      vertex 0 41.275 13.335
    endloop
  endfacet
  facet normal -0 0 1
    outer loop
      vertex 3.175 3.175 13.335
      vertex 24.765 0 13.335
      vertex 24.765 3.175 13.335
    endloop
  endfacet
  facet normal 0 0 1
    outer loop
      vertex 3.175 44.45 13.335
      vertex 0 33.02 13.335
      vertex 3.175 3.175 13.335
    endloop
  endfacet
  facet normal -0 0 1
    outer loop
      vertex 0 7.62 13.335
      vertex 3.175 3.175 13.335
      vertex 0 33.02 13.335
    endloop
  endfacet
  facet normal 0 0 1
    outer loop
      vertex 3.175 3.175 13.335
      vertex 0 0 13.335
      vertex 24.765 0 13.335
    endloop
  endfacet
  facet normal 0 0 1
    outer loop
      vertex 0 0 13.335
      vertex 3.175 3.175 13.335
      vertex 0 7.62 13.335
    endloop
  endfacet
  facet normal -0 0 1
    outer loop
      vertex -25.4 33.02 13.335
      vertex 0 7.62 13.335
      vertex 0 33.02 13.335
    endloop
  endfacet
  facet normal 0 0 1
    outer loop
      vertex 0 7.62 13.335
      vertex -25.4 33.02 13.335
      vertex -25.4 7.62 13.335
    endloop
  endfacet
  facet normal 0 0 1
    outer loop
      vertex 54.61 57.15 13.335
      vertex 51.435 53.975 13.335
      vertex 54.61 0 13.335
    endloop
  endfacet
  facet normal -0 0 1
    outer loop
      vertex 15.875 57.15 13.335
      vertex 51.435 53.975 13.335
      vertex 54.61 57.15 13.335
    endloop
  endfacet
  facet normal 0 0 1
    outer loop
      vertex 51.435 53.975 13.335
      vertex 15.875 57.15 13.335
      vertex 12.7 53.975 13.335
    endloop
  endfacet
  facet normal -0 0 1
    outer loop
      vertex 51.435 3.175 13.335
      vertex 54.61 0 13.335
      vertex 51.435 53.975 13.335
    endloop
  endfacet
  facet normal 0 0 1
    outer loop
      vertex 43.815 0 13.335
      vertex 51.435 3.175 13.335
      vertex 43.815 3.175 13.335
    endloop
  endfacet
  facet normal 0 0 1
    outer loop
      vertex 51.435 3.175 13.335
      vertex 43.815 0 13.335
      vertex 54.61 0 13.335
    endloop
  endfacet
  facet normal 1 0 0
    outer loop
      vertex 54.61 57.15 0
      vertex 54.61 71.755 5.08
      vertex 54.61 57.15 5.08
    endloop
  endfacet
  facet normal 1 0 0
    outer loop
      vertex 54.61 71.755 5.08
      vertex 54.61 57.15 0
      vertex 54.61 71.755 -15.24
    endloop
  endfacet
  facet normal 1 0 0
    outer loop
      vertex 54.61 3.175 -15.24
      vertex 54.61 57.15 0
      vertex 54.61 3.175 0
    endloop
  endfacet
  facet normal 1 0 0
    outer loop
      vertex 54.61 57.15 0
      vertex 54.61 3.175 -15.24
      vertex 54.61 71.755 -15.24
    endloop
  endfacet
  facet normal 1 0 0
    outer loop
      vertex 54.61 3.175 1.905
      vertex 54.61 57.15 5.08
      vertex 54.61 57.15 13.335
    endloop
  endfacet
  facet normal 1 0 0
    outer loop
      vertex 54.61 57.15 5.08
      vertex 54.61 3.175 1.905
      vertex 54.61 57.15 0
    endloop
  endfacet
  facet normal 1 -0 0
    outer loop
      vertex 54.61 0 13.335
      vertex 54.61 3.175 1.905
      vertex 54.61 57.15 13.335
    endloop
  endfacet
  facet normal 1 0 0
    outer loop
      vertex 54.61 3.175 1.905
      vertex 54.61 0 13.335
      vertex 54.61 0 1.905
    endloop
  endfacet
  facet normal 1 0 0
    outer loop
      vertex 54.61 57.15 0
      vertex 54.61 3.175 1.905
      vertex 54.61 3.175 0
    endloop
  endfacet
  facet normal 0 1 0
    outer loop
      vertex 51.435 57.15 5.08
      vertex 54.61 57.15 13.335
      vertex 54.61 57.15 5.08
    endloop
  endfacet
  facet normal 0 1 0
    outer loop
      vertex 54.61 57.15 13.335
      vertex 51.435 57.15 5.08
      vertex 15.875 57.15 13.335
    endloop
  endfacet
  facet normal 0 1 0
    outer loop
      vertex 15.875 57.15 0
      vertex 51.435 57.15 5.08
      vertex 51.435 57.15 0
    endloop
  endfacet
  facet normal 0 1 0
    outer loop
      vertex 51.435 57.15 5.08
      vertex 15.875 57.15 0
      vertex 15.875 57.15 13.335
    endloop
  endfacet
  facet normal 0 -1 0
    outer loop
      vertex 43.815 0 13.335
      vertex 54.61 0 1.905
      vertex 54.61 0 13.335
    endloop
  endfacet
  facet normal 0 -1 0
    outer loop
      vertex 46.99 0 0
      vertex 54.61 0 1.905
      vertex 43.815 0 13.335
    endloop
  endfacet
  facet normal 0 -1 -0
    outer loop
      vertex 54.61 0 1.905
      vertex 51.435 0 0
      vertex 54.64 0 1.42748
    endloop
  endfacet
  facet normal 0 -1 -0
    outer loop
      vertex 54.64 0 1.42748
      vertex 51.435 0 0
      vertex 54.7297 0 0.957491
    endloop
  endfacet
  facet normal 0 -1 -0
    outer loop
      vertex 54.7297 0 0.957491
      vertex 51.435 0 0
      vertex 54.8776 0 0.502445
    endloop
  endfacet
  facet normal 0 -1 0
    outer loop
      vertex 46.99 0 0
      vertex 43.815 0 13.335
      vertex 43.815 0 0
    endloop
  endfacet
  facet normal 0 -1 0
    outer loop
      vertex 54.61 0 1.905
      vertex 46.99 0 0
      vertex 51.435 0 0
    endloop
  endfacet
  facet normal 0 -1 -0
    outer loop
      vertex 54.8776 0 0.502445
      vertex 51.435 0 0
      vertex 55.0813 0 0.0695181
    endloop
  endfacet
  facet normal 0 -1 0
    outer loop
      vertex 51.435 0 0
      vertex 55.3376 0 -0.334462
      vertex 55.0813 0 0.0695181
    endloop
  endfacet
  facet normal 0 -1 0
    outer loop
      vertex 51.435 0 0
      vertex 55.6426 0 -0.703125
      vertex 55.3376 0 -0.334462
    endloop
  endfacet
  facet normal 0 -1 0
    outer loop
      vertex 51.435 0 0
      vertex 55.9914 0 -1.03066
      vertex 55.6426 0 -0.703125
    endloop
  endfacet
  facet normal 0 -1 0
    outer loop
      vertex 51.435 0 0
      vertex 56.3785 0 -1.31189
      vertex 55.9914 0 -1.03066
    endloop
  endfacet
  facet normal 0 -1 0
    outer loop
      vertex 51.435 0 -18.415
      vertex 56.3785 0 -1.31189
      vertex 51.435 0 0
    endloop
  endfacet
  facet normal 0 -1 -0
    outer loop
      vertex 56.3785 0 -1.31189
      vertex 51.435 0 -18.415
      vertex 56.7978 0 -1.54239
    endloop
  endfacet
  facet normal 0 -1 -0
    outer loop
      vertex 58.1808 0 -1.89748
      vertex 51.435 0 -18.415
      vertex 58.6592 0 -1.89748
    endloop
  endfacet
  facet normal 0 -1 -0
    outer loop
      vertex 57.7061 0 -1.83751
      vertex 51.435 0 -18.415
      vertex 58.1808 0 -1.89748
    endloop
  endfacet
  facet normal 0 -1 -0
    outer loop
      vertex 57.2426 0 -1.71853
      vertex 51.435 0 -18.415
      vertex 57.7061 0 -1.83751
    endloop
  endfacet
  facet normal 0 -1 -0
    outer loop
      vertex 56.7978 0 -1.54239
      vertex 51.435 0 -18.415
      vertex 57.2426 0 -1.71853
    endloop
  endfacet
  facet normal 0 -1 0
    outer loop
      vertex 62.23 0 1.905
      vertex 93.345 0 5.08
      vertex 62.23 0 5.08
    endloop
  endfacet
  facet normal 0 -1 0
    outer loop
      vertex 62.2 0 1.42748
      vertex 93.345 0 5.08
      vertex 62.23 0 1.905
    endloop
  endfacet
  facet normal 0 -1 0
    outer loop
      vertex 62.1103 0 0.957491
      vertex 93.345 0 5.08
      vertex 62.2 0 1.42748
    endloop
  endfacet
  facet normal 0 -1 0
    outer loop
      vertex 61.9624 0 0.502445
      vertex 93.345 0 5.08
      vertex 62.1103 0 0.957491
    endloop
  endfacet
  facet normal 0 -1 0
    outer loop
      vertex 93.345 0 -18.415
      vertex 61.9624 0 0.502445
      vertex 61.7587 0 0.0695181
    endloop
  endfacet
  facet normal 0 -1 0
    outer loop
      vertex 93.345 0 -18.415
      vertex 61.7587 0 0.0695181
      vertex 61.5024 0 -0.334462
    endloop
  endfacet
  facet normal 0 -1 0
    outer loop
      vertex 93.345 0 -18.415
      vertex 61.5024 0 -0.334462
      vertex 61.1974 0 -0.703125
    endloop
  endfacet
  facet normal 0 -1 0
    outer loop
      vertex 93.345 0 -18.415
      vertex 61.1974 0 -0.703125
      vertex 60.8486 0 -1.03066
    endloop
  endfacet
  facet normal 0 -1 0
    outer loop
      vertex 93.345 0 -18.415
      vertex 60.8486 0 -1.03066
      vertex 60.4615 0 -1.31189
    endloop
  endfacet
  facet normal 0 -1 0
    outer loop
      vertex 51.435 0 -18.415
      vertex 60.4615 0 -1.31189
      vertex 60.0422 0 -1.54239
    endloop
  endfacet
  facet normal 0 -1 0
    outer loop
      vertex 51.435 0 -18.415
      vertex 60.0422 0 -1.54239
      vertex 59.5974 0 -1.71853
    endloop
  endfacet
  facet normal 0 -1 0
    outer loop
      vertex 51.435 0 -18.415
      vertex 59.5974 0 -1.71853
      vertex 59.1339 0 -1.83751
    endloop
  endfacet
  facet normal 0 -1 0
    outer loop
      vertex 51.435 0 -18.415
      vertex 59.1339 0 -1.83751
      vertex 58.6592 0 -1.89748
    endloop
  endfacet
  facet normal 0 -1 -0
    outer loop
      vertex 60.4615 0 -1.31189
      vertex 51.435 0 -18.415
      vertex 93.345 0 -18.415
    endloop
  endfacet
  facet normal 0 -1 0
    outer loop
      vertex 61.9624 0 0.502445
      vertex 93.345 0 -18.415
      vertex 93.345 0 5.08
    endloop
  endfacet
  facet normal 0 -1 0
    outer loop
      vertex 21.59 0 0
      vertex 0 0 13.335
      vertex 0 0 0
    endloop
  endfacet
  facet normal 0 -1 0
    outer loop
      vertex 0 0 13.335
      vertex 21.59 0 0
      vertex 24.765 0 13.335
    endloop
  endfacet
  facet normal 0 -1 -0
    outer loop
      vertex 24.765 0 13.335
      vertex 21.59 0 0
      vertex 24.765 0 0
    endloop
  endfacet
  facet normal 1 -0 0
    outer loop
      vertex 3.175 3.175 13.335
      vertex 3.175 44.45 3.175
      vertex 3.175 44.45 13.335
    endloop
  endfacet
  facet normal 1 0 0
    outer loop
      vertex 3.175 44.45 3.175
      vertex 3.175 3.175 13.335
      vertex 3.175 3.175 3.175
    endloop
  endfacet
  facet normal -1 0 0
    outer loop
      vertex 51.435 74.93 -18.415
      vertex 51.435 57.15 0
      vertex 51.435 74.93 5.08
    endloop
  endfacet
  facet normal -1 0 0
    outer loop
      vertex 51.435 0 -18.415
      vertex 51.435 57.15 0
      vertex 51.435 74.93 -18.415
    endloop
  endfacet
  facet normal -1 -0 0
    outer loop
      vertex 51.435 57.15 0
      vertex 51.435 0 -18.415
      vertex 51.435 0 0
    endloop
  endfacet
  facet normal -1 -0 0
    outer loop
      vertex 51.435 74.93 5.08
      vertex 51.435 57.15 0
      vertex 51.435 57.15 5.08
    endloop
  endfacet
  facet normal -1 0 0
    outer loop
      vertex 51.435 3.175 5.08
      vertex 51.435 53.975 13.335
      vertex 51.435 53.975 5.08
    endloop
  endfacet
  facet normal -1 -0 0
    outer loop
      vertex 51.435 53.975 13.335
      vertex 51.435 3.175 5.08
      vertex 51.435 3.175 13.335
    endloop
  endfacet
  facet normal -1 0 0
    outer loop
      vertex 51.435 3.175 3.175
      vertex 51.435 53.975 5.08
      vertex 51.435 53.975 3.175
    endloop
  endfacet
  facet normal -1 -0 0
    outer loop
      vertex 51.435 53.975 5.08
      vertex 51.435 3.175 3.175
      vertex 51.435 3.175 5.08
    endloop
  endfacet
  facet normal 0 0 1
    outer loop
      vertex 51.435 53.975 3.175
      vertex 43.815 38.1 3.175
      vertex 51.435 3.175 3.175
    endloop
  endfacet
  facet normal 0 0 1
    outer loop
      vertex 51.435 53.975 3.175
      vertex 24.765 38.1 3.175
      vertex 43.815 38.1 3.175
    endloop
  endfacet
  facet normal -0 0 1
    outer loop
      vertex 12.7 53.975 3.175
      vertex 24.765 38.1 3.175
      vertex 51.435 53.975 3.175
    endloop
  endfacet
  facet normal -0 0 1
    outer loop
      vertex 3.175 44.45 3.175
      vertex 24.765 38.1 3.175
      vertex 12.7 53.975 3.175
    endloop
  endfacet
  facet normal 0 0 1
    outer loop
      vertex 3.175 3.175 3.175
      vertex 24.765 38.1 3.175
      vertex 3.175 44.45 3.175
    endloop
  endfacet
  facet normal 0 0 1
    outer loop
      vertex 24.765 38.1 3.175
      vertex 3.175 3.175 3.175
      vertex 24.765 3.175 3.175
    endloop
  endfacet
  facet normal 0 0 1
    outer loop
      vertex 51.435 3.175 3.175
      vertex 43.815 38.1 3.175
      vertex 43.815 3.175 3.175
    endloop
  endfacet
  facet normal 0 1 -0
    outer loop
      vertex 24.765 3.175 3.175
      vertex 3.175 3.175 13.335
      vertex 24.765 3.175 13.335
    endloop
  endfacet
  facet normal 0 1 0
    outer loop
      vertex 3.175 3.175 13.335
      vertex 24.765 3.175 3.175
      vertex 3.175 3.175 3.175
    endloop
  endfacet
  facet normal 0 1 -0
    outer loop
      vertex 51.435 3.175 5.08
      vertex 43.815 3.175 13.335
      vertex 51.435 3.175 13.335
    endloop
  endfacet
  facet normal 0 1 0
    outer loop
      vertex 43.815 3.175 3.175
      vertex 51.435 3.175 5.08
      vertex 51.435 3.175 3.175
    endloop
  endfacet
  facet normal 0 1 0
    outer loop
      vertex 51.435 3.175 5.08
      vertex 43.815 3.175 3.175
      vertex 43.815 3.175 13.335
    endloop
  endfacet
  facet normal 0 -1 0
    outer loop
      vertex 12.7 53.975 13.335
      vertex 51.435 53.975 5.08
      vertex 51.435 53.975 13.335
    endloop
  endfacet
  facet normal 0 -1 0
    outer loop
      vertex 12.7 53.975 3.175
      vertex 51.435 53.975 5.08
      vertex 12.7 53.975 13.335
    endloop
  endfacet
  facet normal 0 -1 -0
    outer loop
      vertex 51.435 53.975 5.08
      vertex 12.7 53.975 3.175
      vertex 51.435 53.975 3.175
    endloop
  endfacet
  facet normal -0.707107 0.707106 0
    outer loop
      vertex 15.875 57.15 0
      vertex 12.7 53.975 3.175
      vertex 15.875 57.15 13.335
    endloop
  endfacet
  facet normal -0.707107 0.707107 5.66383e-07
    outer loop
      vertex 15.875 57.15 0
      vertex 3.175 44.45 3.175
      vertex 12.7 53.975 3.175
    endloop
  endfacet
  facet normal -0.707107 0.707107 8.49574e-07
    outer loop
      vertex 0 41.275 0
      vertex 3.175 44.45 3.175
      vertex 15.875 57.15 0
    endloop
  endfacet
  facet normal -0.707106 0.707107 0
    outer loop
      vertex 0 41.275 13.335
      vertex 3.175 44.45 3.175
      vertex 0 41.275 0
    endloop
  endfacet
  facet normal -0.707106 0.707107 0
    outer loop
      vertex 3.175 44.45 3.175
      vertex 0 41.275 13.335
      vertex 3.175 44.45 13.335
    endloop
  endfacet
  facet normal -0.707107 0.707106 0
    outer loop
      vertex 15.875 57.15 13.335
      vertex 12.7 53.975 3.175
      vertex 12.7 53.975 13.335
    endloop
  endfacet
  facet normal 0 0 1
    outer loop
      vertex 93.345 74.93 5.08
      vertex 90.17 71.755 5.08
      vertex 93.345 0 5.08
    endloop
  endfacet
  facet normal 0 0 1
    outer loop
      vertex 93.345 74.93 5.08
      vertex 54.61 71.755 5.08
      vertex 90.17 71.755 5.08
    endloop
  endfacet
  facet normal -0 0 1
    outer loop
      vertex 51.435 74.93 5.08
      vertex 54.61 71.755 5.08
      vertex 93.345 74.93 5.08
    endloop
  endfacet
  facet normal 0 0 1
    outer loop
      vertex 51.435 57.15 5.08
      vertex 54.61 71.755 5.08
      vertex 51.435 74.93 5.08
    endloop
  endfacet
  facet normal 0 0 1
    outer loop
      vertex 54.61 71.755 5.08
      vertex 51.435 57.15 5.08
      vertex 54.61 57.15 5.08
    endloop
  endfacet
  facet normal -0 0 1
    outer loop
      vertex 90.17 3.175 5.08
      vertex 93.345 0 5.08
      vertex 90.17 71.755 5.08
    endloop
  endfacet
  facet normal 0 0 1
    outer loop
      vertex 62.23 0 5.08
      vertex 90.17 3.175 5.08
      vertex 62.23 3.175 5.08
    endloop
  endfacet
  facet normal 0 0 1
    outer loop
      vertex 90.17 3.175 5.08
      vertex 62.23 0 5.08
      vertex 93.345 0 5.08
    endloop
  endfacet
  facet normal 1 -0 0
    outer loop
      vertex 93.345 0 5.08
      vertex 93.345 74.93 -18.415
      vertex 93.345 74.93 5.08
    endloop
  endfacet
  facet normal 1 0 0
    outer loop
      vertex 93.345 74.93 -18.415
      vertex 93.345 0 5.08
      vertex 93.345 0 -18.415
    endloop
  endfacet
  facet normal 0 0 -1
    outer loop
      vertex 51.435 0 -18.415
      vertex 93.345 74.93 -18.415
      vertex 93.345 0 -18.415
    endloop
  endfacet
  facet normal -0 0 -1
    outer loop
      vertex 93.345 74.93 -18.415
      vertex 51.435 0 -18.415
      vertex 51.435 74.93 -18.415
    endloop
  endfacet
  facet normal 0 1 -0
    outer loop
      vertex 93.345 74.93 -18.415
      vertex 51.435 74.93 5.08
      vertex 93.345 74.93 5.08
    endloop
  endfacet
  facet normal 0 1 0
    outer loop
      vertex 51.435 74.93 5.08
      vertex 93.345 74.93 -18.415
      vertex 51.435 74.93 -18.415
    endloop
  endfacet
  facet normal -1 0 0
    outer loop
      vertex 90.17 3.175 -15.24
      vertex 90.17 71.755 5.08
      vertex 90.17 71.755 -15.24
    endloop
  endfacet
  facet normal -1 -0 0
    outer loop
      vertex 90.17 71.755 5.08
      vertex 90.17 3.175 -15.24
      vertex 90.17 3.175 5.08
    endloop
  endfacet
  facet normal 0 -1 0
    outer loop
      vertex 54.61 71.755 -15.24
      vertex 90.17 71.755 5.08
      vertex 54.61 71.755 5.08
    endloop
  endfacet
  facet normal 0 -1 -0
    outer loop
      vertex 90.17 71.755 5.08
      vertex 54.61 71.755 -15.24
      vertex 90.17 71.755 -15.24
    endloop
  endfacet
  facet normal -0 0 1
    outer loop
      vertex 54.61 71.755 -15.24
      vertex 90.17 3.175 -15.24
      vertex 90.17 71.755 -15.24
    endloop
  endfacet
  facet normal 0 0 1
    outer loop
      vertex 90.17 3.175 -15.24
      vertex 54.61 71.755 -15.24
      vertex 54.61 3.175 -15.24
    endloop
  endfacet
  facet normal 0 1 0
    outer loop
      vertex 90.17 3.175 5.08
      vertex 62.23 3.175 1.905
      vertex 62.23 3.175 5.08
    endloop
  endfacet
  facet normal 0 1 0
    outer loop
      vertex 90.17 3.175 5.08
      vertex 62.2 3.175 1.42748
      vertex 62.23 3.175 1.905
    endloop
  endfacet
  facet normal 0 1 0
    outer loop
      vertex 90.17 3.175 5.08
      vertex 62.1103 3.175 0.957491
      vertex 62.2 3.175 1.42748
    endloop
  endfacet
  facet normal 0 1 0
    outer loop
      vertex 90.17 3.175 5.08
      vertex 61.9624 3.175 0.502445
      vertex 62.1103 3.175 0.957491
    endloop
  endfacet
  facet normal 0 1 -0
    outer loop
      vertex 90.17 3.175 -15.24
      vertex 61.9624 3.175 0.502445
      vertex 90.17 3.175 5.08
    endloop
  endfacet
  facet normal 0 1 0
    outer loop
      vertex 61.9624 3.175 0.502445
      vertex 90.17 3.175 -15.24
      vertex 61.7587 3.175 0.0695181
    endloop
  endfacet
  facet normal 0 1 0
    outer loop
      vertex 61.7587 3.175 0.0695181
      vertex 90.17 3.175 -15.24
      vertex 61.5024 3.175 -0.334462
    endloop
  endfacet
  facet normal 0 1 0
    outer loop
      vertex 61.5024 3.175 -0.334462
      vertex 90.17 3.175 -15.24
      vertex 61.1974 3.175 -0.703125
    endloop
  endfacet
  facet normal 0 1 0
    outer loop
      vertex 61.1974 3.175 -0.703125
      vertex 90.17 3.175 -15.24
      vertex 60.8486 3.175 -1.03066
    endloop
  endfacet
  facet normal 0 1 0
    outer loop
      vertex 54.61 3.175 -15.24
      vertex 60.8486 3.175 -1.03066
      vertex 90.17 3.175 -15.24
    endloop
  endfacet
  facet normal 0 1 0
    outer loop
      vertex 60.8486 3.175 -1.03066
      vertex 54.61 3.175 -15.24
      vertex 60.4615 3.175 -1.31189
    endloop
  endfacet
  facet normal 0 1 0
    outer loop
      vertex 60.4615 3.175 -1.31189
      vertex 54.61 3.175 -15.24
      vertex 60.0422 3.175 -1.54239
    endloop
  endfacet
  facet normal 0 1 0
    outer loop
      vertex 59.1339 3.175 -1.83751
      vertex 54.61 3.175 -15.24
      vertex 58.6592 3.175 -1.89748
    endloop
  endfacet
  facet normal 0 1 0
    outer loop
      vertex 59.5974 3.175 -1.71853
      vertex 54.61 3.175 -15.24
      vertex 59.1339 3.175 -1.83751
    endloop
  endfacet
  facet normal 0 1 0
    outer loop
      vertex 60.0422 3.175 -1.54239
      vertex 54.61 3.175 -15.24
      vertex 59.5974 3.175 -1.71853
    endloop
  endfacet
  facet normal 0 1 0
    outer loop
      vertex 54.64 3.175 1.42748
      vertex 54.61 3.175 0
      vertex 54.61 3.175 1.905
    endloop
  endfacet
  facet normal 0 1 0
    outer loop
      vertex 54.7297 3.175 0.957491
      vertex 54.61 3.175 0
      vertex 54.64 3.175 1.42748
    endloop
  endfacet
  facet normal 0 1 0
    outer loop
      vertex 54.8776 3.175 0.502445
      vertex 54.61 3.175 0
      vertex 54.7297 3.175 0.957491
    endloop
  endfacet
  facet normal 0 1 0
    outer loop
      vertex 55.0813 3.175 0.0695181
      vertex 54.61 3.175 0
      vertex 54.8776 3.175 0.502445
    endloop
  endfacet
  facet normal 0 1 0
    outer loop
      vertex 55.3376 3.175 -0.334462
      vertex 54.61 3.175 0
      vertex 55.0813 3.175 0.0695181
    endloop
  endfacet
  facet normal 0 1 0
    outer loop
      vertex 55.6426 3.175 -0.703125
      vertex 54.61 3.175 0
      vertex 55.3376 3.175 -0.334462
    endloop
  endfacet
  facet normal 0 1 0
    outer loop
      vertex 55.9914 3.175 -1.03066
      vertex 54.61 3.175 0
      vertex 55.6426 3.175 -0.703125
    endloop
  endfacet
  facet normal 0 1 0
    outer loop
      vertex 58.6592 3.175 -1.89748
      vertex 54.61 3.175 -15.24
      vertex 58.1808 3.175 -1.89748
    endloop
  endfacet
  facet normal 0 1 0
    outer loop
      vertex 58.1808 3.175 -1.89748
      vertex 54.61 3.175 -15.24
      vertex 57.7061 3.175 -1.83751
    endloop
  endfacet
  facet normal 0 1 0
    outer loop
      vertex 57.7061 3.175 -1.83751
      vertex 54.61 3.175 -15.24
      vertex 57.2426 3.175 -1.71853
    endloop
  endfacet
  facet normal 0 1 0
    outer loop
      vertex 55.9914 3.175 -1.03066
      vertex 54.61 3.175 -15.24
      vertex 54.61 3.175 0
    endloop
  endfacet
  facet normal 0 1 0
    outer loop
      vertex 56.3785 3.175 -1.31189
      vertex 54.61 3.175 -15.24
      vertex 55.9914 3.175 -1.03066
    endloop
  endfacet
  facet normal 0 1 0
    outer loop
      vertex 56.7978 3.175 -1.54239
      vertex 54.61 3.175 -15.24
      vertex 56.3785 3.175 -1.31189
    endloop
  endfacet
  facet normal 0 1 0
    outer loop
      vertex 57.2426 3.175 -1.71853
      vertex 54.61 3.175 -15.24
      vertex 56.7978 3.175 -1.54239
    endloop
  endfacet
  facet normal -1 0 0
    outer loop
      vertex 62.23 0 1.905
      vertex 62.23 3.175 5.08
      vertex 62.23 3.175 1.905
    endloop
  endfacet
  facet normal -1 -0 0
    outer loop
      vertex 62.23 3.175 5.08
      vertex 62.23 0 1.905
      vertex 62.23 0 5.08
    endloop
  endfacet
  facet normal -0.481754 0 0.876306
    outer loop
      vertex 60.0422 3.175 -1.54239
      vertex 60.4615 0 -1.31189
      vertex 60.4615 3.175 -1.31189
    endloop
  endfacet
  facet normal -0.481754 0 0.876306
    outer loop
      vertex 60.4615 0 -1.31189
      vertex 60.0422 3.175 -1.54239
      vertex 60.0422 0 -1.54239
    endloop
  endfacet
  facet normal 0.998027 -0 0.0627858
    outer loop
      vertex 54.61 0 1.905
      vertex 54.64 3.175 1.42748
      vertex 54.61 3.175 1.905
    endloop
  endfacet
  facet normal 0.998027 0 0.0627858
    outer loop
      vertex 54.64 3.175 1.42748
      vertex 54.61 0 1.905
      vertex 54.64 0 1.42748
    endloop
  endfacet
  facet normal -0.982287 0 0.187385
    outer loop
      vertex 62.1103 0 0.957491
      vertex 62.2 3.175 1.42748
      vertex 62.1103 3.175 0.957491
    endloop
  endfacet
  facet normal -0.982287 0 0.187385
    outer loop
      vertex 62.2 3.175 1.42748
      vertex 62.1103 0 0.957491
      vertex 62.2 0 1.42748
    endloop
  endfacet
  facet normal -0.951056 0 0.309018
    outer loop
      vertex 61.9624 0 0.502445
      vertex 62.1103 3.175 0.957491
      vertex 61.9624 3.175 0.502445
    endloop
  endfacet
  facet normal -0.951056 0 0.309018
    outer loop
      vertex 62.1103 3.175 0.957491
      vertex 61.9624 0 0.502445
      vertex 62.1103 0 0.957491
    endloop
  endfacet
  facet normal -0.844327 0 0.535828
    outer loop
      vertex 61.5024 0 -0.334462
      vertex 61.7587 3.175 0.0695181
      vertex 61.5024 3.175 -0.334462
    endloop
  endfacet
  facet normal -0.844327 0 0.535828
    outer loop
      vertex 61.7587 3.175 0.0695181
      vertex 61.5024 0 -0.334462
      vertex 61.7587 0 0.0695181
    endloop
  endfacet
  facet normal 0.982287 -0 0.187385
    outer loop
      vertex 54.64 0 1.42748
      vertex 54.7297 3.175 0.957491
      vertex 54.64 3.175 1.42748
    endloop
  endfacet
  facet normal 0.982287 0 0.187385
    outer loop
      vertex 54.7297 3.175 0.957491
      vertex 54.64 0 1.42748
      vertex 54.7297 0 0.957491
    endloop
  endfacet
  facet normal -0.125333 0 0.992115
    outer loop
      vertex 58.6592 3.175 -1.89748
      vertex 59.1339 0 -1.83751
      vertex 59.1339 3.175 -1.83751
    endloop
  endfacet
  facet normal -0.125333 0 0.992115
    outer loop
      vertex 59.1339 0 -1.83751
      vertex 58.6592 3.175 -1.89748
      vertex 58.6592 0 -1.89748
    endloop
  endfacet
  facet normal -0.248689 0 0.968583
    outer loop
      vertex 59.1339 3.175 -1.83751
      vertex 59.5974 0 -1.71853
      vertex 59.5974 3.175 -1.71853
    endloop
  endfacet
  facet normal -0.248689 0 0.968583
    outer loop
      vertex 59.5974 0 -1.71853
      vertex 59.1339 3.175 -1.83751
      vertex 59.1339 0 -1.83751
    endloop
  endfacet
  facet normal -0.998027 0 0.0627858
    outer loop
      vertex 62.2 0 1.42748
      vertex 62.23 3.175 1.905
      vertex 62.2 3.175 1.42748
    endloop
  endfacet
  facet normal -0.998027 0 0.0627858
    outer loop
      vertex 62.23 3.175 1.905
      vertex 62.2 0 1.42748
      vertex 62.23 0 1.905
    endloop
  endfacet
  facet normal -0.904827 0 0.425779
    outer loop
      vertex 61.7587 0 0.0695181
      vertex 61.9624 3.175 0.502445
      vertex 61.7587 3.175 0.0695181
    endloop
  endfacet
  facet normal -0.904827 0 0.425779
    outer loop
      vertex 61.9624 3.175 0.502445
      vertex 61.7587 0 0.0695181
      vertex 61.9624 0 0.502445
    endloop
  endfacet
  facet normal -0 0 1
    outer loop
      vertex 58.1808 3.175 -1.89748
      vertex 58.6592 0 -1.89748
      vertex 58.6592 3.175 -1.89748
    endloop
  endfacet
  facet normal 0 0 1
    outer loop
      vertex 58.6592 0 -1.89748
      vertex 58.1808 3.175 -1.89748
      vertex 58.1808 0 -1.89748
    endloop
  endfacet
  facet normal 0.951056 -0 0.309018
    outer loop
      vertex 54.7297 0 0.957491
      vertex 54.8776 3.175 0.502445
      vertex 54.7297 3.175 0.957491
    endloop
  endfacet
  facet normal 0.951056 0 0.309018
    outer loop
      vertex 54.8776 3.175 0.502445
      vertex 54.7297 0 0.957491
      vertex 54.8776 0 0.502445
    endloop
  endfacet
  facet normal 0.684547 0 0.728969
    outer loop
      vertex 55.6426 3.175 -0.703125
      vertex 55.9914 0 -1.03066
      vertex 55.9914 3.175 -1.03066
    endloop
  endfacet
  facet normal 0.684547 0 0.728969
    outer loop
      vertex 55.9914 0 -1.03066
      vertex 55.6426 3.175 -0.703125
      vertex 55.6426 0 -0.703125
    endloop
  endfacet
  facet normal -0.368126 0 0.929776
    outer loop
      vertex 59.5974 3.175 -1.71853
      vertex 60.0422 0 -1.54239
      vertex 60.0422 3.175 -1.54239
    endloop
  endfacet
  facet normal -0.368126 0 0.929776
    outer loop
      vertex 60.0422 0 -1.54239
      vertex 59.5974 3.175 -1.71853
      vertex 59.5974 0 -1.71853
    endloop
  endfacet
  facet normal -0.587782 0 0.80902
    outer loop
      vertex 60.4615 3.175 -1.31189
      vertex 60.8486 0 -1.03066
      vertex 60.8486 3.175 -1.03066
    endloop
  endfacet
  facet normal -0.587782 0 0.80902
    outer loop
      vertex 60.8486 0 -1.03066
      vertex 60.4615 3.175 -1.31189
      vertex 60.4615 0 -1.31189
    endloop
  endfacet
  facet normal 0.248689 0 0.968583
    outer loop
      vertex 57.2426 3.175 -1.71853
      vertex 57.7061 0 -1.83751
      vertex 57.7061 3.175 -1.83751
    endloop
  endfacet
  facet normal 0.248689 0 0.968583
    outer loop
      vertex 57.7061 0 -1.83751
      vertex 57.2426 3.175 -1.71853
      vertex 57.2426 0 -1.71853
    endloop
  endfacet
  facet normal 0.587785 0 0.809017
    outer loop
      vertex 55.9914 3.175 -1.03066
      vertex 56.3785 0 -1.31189
      vertex 56.3785 3.175 -1.31189
    endloop
  endfacet
  facet normal 0.587785 0 0.809017
    outer loop
      vertex 56.3785 0 -1.31189
      vertex 55.9914 3.175 -1.03066
      vertex 55.9914 0 -1.03066
    endloop
  endfacet
  facet normal 0.481754 0 0.876306
    outer loop
      vertex 56.3785 3.175 -1.31189
      vertex 56.7978 0 -1.54239
      vertex 56.7978 3.175 -1.54239
    endloop
  endfacet
  facet normal 0.481754 0 0.876306
    outer loop
      vertex 56.7978 0 -1.54239
      vertex 56.3785 3.175 -1.31189
      vertex 56.3785 0 -1.31189
    endloop
  endfacet
  facet normal 0.904827 -0 0.425779
    outer loop
      vertex 54.8776 0 0.502445
      vertex 55.0813 3.175 0.0695181
      vertex 54.8776 3.175 0.502445
    endloop
  endfacet
  facet normal 0.904827 0 0.425779
    outer loop
      vertex 55.0813 3.175 0.0695181
      vertex 54.8776 0 0.502445
      vertex 55.0813 0 0.0695181
    endloop
  endfacet
  facet normal 0.770517 -0 0.63742
    outer loop
      vertex 55.3376 0 -0.334462
      vertex 55.6426 3.175 -0.703125
      vertex 55.3376 3.175 -0.334462
    endloop
  endfacet
  facet normal 0.770517 0 0.63742
    outer loop
      vertex 55.6426 3.175 -0.703125
      vertex 55.3376 0 -0.334462
      vertex 55.6426 0 -0.703125
    endloop
  endfacet
  facet normal -0.684551 0 0.728965
    outer loop
      vertex 60.8486 3.175 -1.03066
      vertex 61.1974 0 -0.703125
      vertex 61.1974 3.175 -0.703125
    endloop
  endfacet
  facet normal -0.684551 0 0.728965
    outer loop
      vertex 61.1974 0 -0.703125
      vertex 60.8486 3.175 -1.03066
      vertex 60.8486 0 -1.03066
    endloop
  endfacet
  facet normal -0.770513 0 0.637425
    outer loop
      vertex 61.1974 0 -0.703125
      vertex 61.5024 3.175 -0.334462
      vertex 61.1974 3.175 -0.703125
    endloop
  endfacet
  facet normal -0.770513 0 0.637425
    outer loop
      vertex 61.5024 3.175 -0.334462
      vertex 61.1974 0 -0.703125
      vertex 61.5024 0 -0.334462
    endloop
  endfacet
  facet normal 0.125333 0 0.992115
    outer loop
      vertex 57.7061 3.175 -1.83751
      vertex 58.1808 0 -1.89748
      vertex 58.1808 3.175 -1.89748
    endloop
  endfacet
  facet normal 0.125333 0 0.992115
    outer loop
      vertex 58.1808 0 -1.89748
      vertex 57.7061 3.175 -1.83751
      vertex 57.7061 0 -1.83751
    endloop
  endfacet
  facet normal 0.368123 0 0.929777
    outer loop
      vertex 56.7978 3.175 -1.54239
      vertex 57.2426 0 -1.71853
      vertex 57.2426 3.175 -1.71853
    endloop
  endfacet
  facet normal 0.368123 0 0.929777
    outer loop
      vertex 57.2426 0 -1.71853
      vertex 56.7978 3.175 -1.54239
      vertex 56.7978 0 -1.54239
    endloop
  endfacet
  facet normal 0.844327 -0 0.535828
    outer loop
      vertex 55.0813 0 0.0695181
      vertex 55.3376 3.175 -0.334462
      vertex 55.0813 3.175 0.0695181
    endloop
  endfacet
  facet normal 0.844327 0 0.535828
    outer loop
      vertex 55.3376 3.175 -0.334462
      vertex 55.0813 0 0.0695181
      vertex 55.3376 0 -0.334462
    endloop
  endfacet
  facet normal -1 0 0
    outer loop
      vertex -25.4 7.62 10.16
      vertex -25.4 33.02 13.335
      vertex -25.4 33.02 10.16
    endloop
  endfacet
  facet normal -1 -0 0
    outer loop
      vertex -25.4 33.02 13.335
      vertex -25.4 7.62 10.16
      vertex -25.4 7.62 13.335
    endloop
  endfacet
  facet normal 0 1 -0
    outer loop
      vertex 0 33.02 10.16
      vertex -25.4 33.02 13.335
      vertex 0 33.02 13.335
    endloop
  endfacet
  facet normal 0 1 0
    outer loop
      vertex -25.4 33.02 13.335
      vertex 0 33.02 10.16
      vertex -25.4 33.02 10.16
    endloop
  endfacet
  facet normal 0 0 -1
    outer loop
      vertex -25.4 7.62 10.16
      vertex 0 33.02 10.16
      vertex 0 7.62 10.16
    endloop
  endfacet
  facet normal -0 0 -1
    outer loop
      vertex 0 33.02 10.16
      vertex -25.4 7.62 10.16
      vertex -25.4 33.02 10.16
    endloop
  endfacet
  facet normal 0 -1 0
    outer loop
      vertex -25.4 7.62 10.16
      vertex 0 7.62 13.335
      vertex -25.4 7.62 13.335
    endloop
  endfacet
  facet normal 0 -1 -0
    outer loop
      vertex 0 7.62 13.335
      vertex -25.4 7.62 10.16
      vertex 0 7.62 10.16
    endloop
  endfacet
endsolid OpenSCAD_Model
